<?xml version="1.0" encoding="iso-8859-1"?>
<!-- Generator: Adobe Illustrator 19.0.0, SVG Export Plug-In . SVG Version: 6.00 Build 0)  -->
<svg version="1.1" id="Capa_1" xmlns="http://www.w3.org/2000/svg" xmlns:xlink="http://www.w3.org/1999/xlink" x="0px" y="0px"
	 viewBox="0 0 409.6 409.6" style="enable-background:new 0 0 409.6 409.6;" xml:space="preserve">
<g>
	<g>
		<path d="M305.664,221.865c-8.151,48.399-50.15,85.335-100.849,85.335c-50.729,0-92.728-36.936-100.879-85.335H0v153.6
			c0,18.77,15.365,34.135,34.135,34.135h341.33c18.77,0,34.135-15.365,34.135-34.135v-153.6H305.664z"/>
	</g>
</g>
<g>
	<g>
		<path d="M204.815,136.535c-37.714,0-68.28,30.566-68.28,68.265s30.566,68.265,68.28,68.265c37.683,0,68.25-30.566,68.25-68.265
			S242.499,136.535,204.815,136.535z"/>
	</g>
</g>
<g>
	<g>
		<path d="M375.465,0H34.135C15.365,0,0,15.365,0,34.135v153.6h103.936c8.151-48.399,50.15-85.335,100.879-85.335
			c50.698,0,92.698,36.936,100.849,85.335H409.6v-153.6C409.6,15.365,394.235,0,375.465,0z M358.4,85.335
			c0,9.38-7.685,17.065-17.065,17.065h-17.07c-9.38,0-17.065-7.685-17.065-17.065v-17.07c0-9.38,7.685-17.065,17.065-17.065h17.07
			c9.38,0,17.065,7.685,17.065,17.065V85.335z"/>
	</g>
</g>
<g>
</g>
<g>
</g>
<g>
</g>
<g>
</g>
<g>
</g>
<g>
</g>
<g>
</g>
<g>
</g>
<g>
</g>
<g>
</g>
<g>
</g>
<g>
</g>
<g>
</g>
<g>
</g>
<g>
</g>
</svg>
