<?xml version="1.0" encoding="utf-8"?>
<!-- Generator: Adobe Adobe Illustrator 29.2.0, SVG Export Plug-In . SVG Version: 6.00 Build 0)  -->
<svg version="1.1" id="Layer_1" xmlns="http://www.w3.org/2000/svg" xmlns:xlink="http://www.w3.org/1999/xlink" x="0px" y="0px"
	 viewBox="0 0 612 792" style="enable-background:new 0 0 612 792;" xml:space="preserve">
<style type="text/css">
	.st0{fill:#68989C;}
	.st1{fill:#F2C1C3;}
	.st2{fill:#F1C3C3;}
	.st3{fill:#67979C;}
	.st4{fill:#6598A1;}
	.st5{fill:#BC9988;}
	.st6{fill:#E5CACE;}
	.st7{fill:#EFC6C8;}
	.st8{fill:#C1A08E;}
	.st9{fill:#C6D9E8;}
	.st10{fill:#72A9C4;}
	.st11{fill:#C7A693;}
	.st12{fill:#CBAC99;}
	.st13{fill:#E5C8CC;}
	.st14{fill:#ECC3C5;}
	.st15{fill:#E2CCB5;}
	.st16{fill:#D1D3DE;}
	.st17{fill:#DBCDD6;}
	.st18{fill:#E4CBB2;}
	.st19{fill:#D3B6A1;}
	.st20{fill:#CDAE9A;}
	.st21{fill:#DEC4AB;}
	.st22{fill:#C2A28F;}
	.st23{fill:#BFDDEC;}
	.st24{fill:#C6A592;}
	.st25{fill:#B89888;}
	.st26{fill:#BD9C8A;}
	.st27{fill:#DBBFA8;}
	.st28{fill:#BED6E3;}
	.st29{fill:#BFCED6;}
	.st30{fill:#D8BCA6;}
	.st31{fill:#6F9CA1;}
	.st32{fill:#BADDEF;}
	.st33{fill:#B3D8E9;}
	.st34{fill:#ADD2E1;}
	.st35{fill:#E4CAB0;}
	.st36{fill:#699FA5;}
	.st37{fill:#CABBB0;}
	.st38{fill:#97C3D0;}
	.st39{fill:#8BB9C3;}
	.st40{fill:#A4CCD8;}
	.st41{fill:#82B0B9;}
	.st42{fill:#93BEC9;}
	.st43{fill:#9EC8D5;}
	.st44{fill:#78A9B0;}
	.st45{fill:#84A1A0;}
	.st46{fill:#97A7A0;}
	.st47{fill:#C2C7CA;}
	.st48{fill:#71A4AA;}
	.st49{fill:#AFAA9E;}
</style>
<g>
	<path class="st0" d="M189.26,557.18c-7.59-4.76-14.91-10.1-22.85-14.16c-12.98-6.64-25.83-4.32-38.01,2.8
		c-10.18,5.95-21,10-32.63,11.02c-13.62,1.2-26.27-2.76-38.18-9.36c-1.12-0.62-2.14-1.42-3-2.42c2.96,0.48,5.79,1.02,8.45,2.04
		c9.62,3.69,19.31,2.45,28-1.77c9.38-4.55,18-10.85,26.66-16.83c5.16-3.56,9.76-7.97,14.86-12.17c1.75-1.01,3.25-1.84,4.75-2.67
		c18.6-10.41,39.46-6.98,53.6,5.51c-7.4-1.64-14.42-2.95-21.6-0.99c-6.77,1.85-13,4.67-16.87,11.04c-2.36,3.88-1.22,7.04,2.95,8.2
		c3.69,1.02,7.52,1.49,11.41,2.51c6.75,2.67,13.38,5.03,20.21,7.45c0.2,0.05,0.62,0.08,0.63,0.06c0.01-0.02-0.02,0,0.12,0.22
		c0.63,0.34,1.11,0.47,1.87,0.75c3.86,1.56,7.42,3.05,11.05,4.35c13.06,4.67,26.62,6.93,40.36,7.86c7.55,0.52,15.17,0.25,22.75,0.08
		c12.43-0.29,24.58-2.52,36.01-7.5c7.85-3.42,14.44-8.6,15.88-18.59c0.53-7.76-2.46-13.33-8.18-17.67
		c-7.69-5.84-16.47-9.19-25.77-12.19c-9.03-3.9-17.77-7.65-26.7-11.65c-7.56-4.8-14.95-9.36-22.42-14.12
		c-0.33-0.37-0.56-0.54-0.79-0.69c0,0.02,0.02-0.01-0.12-0.28c-1.56-1.67-3.34-2.85-4.34-4.52c-4.16-6.89-8.08-13.92-12.06-21.27
		c-1.82-8.93-2.47-17.54-0.78-26.55c2.04-5.43,3.99-10.53,6.28-15.61c6.83,1.44,11.88,5.21,16.43,9.98
		c0.93,0.97,2.73,1.06,4.14,1.94c-1.58,10.38-2.55,20.21-0.24,30.43c3.66,16.16,12.5,27.76,26.54,35.45c4,2.19,8.27,3.88,12.54,6.07
		c1,0.55,1.89,0.82,2.73,1.13c-0.05,0.04,0.02-0.07,0.1,0.25c0.66,0.72,1.18,1.29,1.82,1.52c10.27,3.6,20.62,6.95,30.81,10.77
		c9.81,3.67,19.68,7.48,25.26,18c1.96,5.74,1.8,11.12-0.06,16.49c0.01,0.01-0.01,0-0.21,0.15c-0.35,0.64-0.48,1.13-0.79,1.86
		c-2.66,3.06-5.14,5.88-7.87,8.81c-0.96,0.89-1.68,1.69-2.61,2.5c-0.36,0.05-0.5,0.08-0.84,0.17c-0.43,0.22-0.57,0.43-0.64,0.71
		c-0.01,0,0,0.01-0.2,0.1c-0.45,0.26-0.63,0.48-0.94,0.78c-0.2,0.01-0.6,0.09-0.87,0.11c-0.71,0.55-1.16,1.08-1.86,1.62
		c-0.62,0.06-0.97,0.11-1.6,0.18c-0.72,0.53-1.16,1.06-1.87,1.59c-0.62,0.05-0.97,0.09-1.6,0.14c-0.97,0.55-1.66,1.11-2.34,1.67
		c0.02,0.01-0.02-0.02-0.34-0.02c-1.57,0.59-2.83,1.18-4.4,1.76c-1.51,0.31-2.71,0.63-4.19,0.94c-0.96,0.29-1.63,0.59-2.6,0.89
		c-0.68,0.04-1.07,0.07-1.76,0.08c-1.29,0.53-2.27,1.08-3.6,1.62c-1.22,0.05-2.11,0.1-3.34,0.13c-2.16,0.54-3.99,1.1-6.17,1.66
		c-1.54,0.04-2.73,0.1-4.25,0.12c-2.45,0.53-4.55,1.09-6.93,1.64c-0.64,0-1,0.02-1.76,0.03c-6.94,0.58-13.49,1.65-20.03,1.62
		c-7.84-0.03-15.66-1.12-23.51-1.52c-14.6-0.75-27.83-5.91-40.57-12.76C191.95,557.99,190.57,557.66,189.26,557.18z"/>
	<path class="st1" d="M76.85,303.75c22.81-31.41,66.58-48.82,107.01-35.42c4.03-17.25,11.29-32.95,22.57-46.52
		c0.29,0.88,0.31,1.55,0.27,2.56c-1.75,6.31-3.44,12.29-5.16,18.65c-1.81,8.61-1.93,16.85-0.09,25.1c0.48,2.17,1.11,4.31,1.69,6.83
		c1.81,5.72,3.61,11.07,5.41,16.71c0.54,0.71,1.06,1.14,1.58,1.77c0,0.2,0.05,0.6,0.08,0.91c2.61,5.1,5.19,9.88,7.62,14.96
		c-1.46,0.72-2.73,1.38-4.05,1.51c-4.04,0.4-8.09,0.67-12.15,0.86c-1.25,0.06-2.53-0.49-3.78-0.41c-6.29,0.39-12.57,0.9-19.21,1.36
		c-1.32,0.02-2.29,0.05-3.52,0.08c-0.62-0.05-0.98-0.11-1.51-0.46c-0.78-0.65-1.38-1.29-1.98-1.3c-6.4-0.08-12.8-0.12-19.2,0
		c-0.67,0.01-1.33,1.11-2.16,1.75c-0.17,0.04-0.52,0.02-0.9,0c-4.21-0.14-8.04-0.42-11.87-0.31c-3.8,0.11-7.59,0.97-11.37,0.87
		c-13.7-0.36-27.4-0.94-41.09-1.55c-2.8-0.12-5.86-0.19-8.24-1.42C75.96,309.84,76.78,306.02,76.85,303.75z"/>
	<path class="st2" d="M404.88,317.92c3.09-4.86,6.17-9.72,9.61-14.91c0.58-0.51,0.74-0.74,0.82-1.02c0,0,0,0,0.31-0.01
		c0.95-0.61,1.6-1.22,2.24-1.83c0,0,0.05,0.07,0.33,0.03c1.63-0.84,3.05-1.52,4.31-2.45c9.03-6.69,18.69-12.23,29.52-15.06
		c10.6-2.78,21.48-3.65,32.09-0.15c7.48,2.47,15.21,4.94,21.85,9.06c6.09,3.78,10.96,9.68,16.17,14.85
		c2.43,2.41,4.39,5.31,6.58,8.31c0.87,2.47,1.74,4.61,2.21,6.75c-6.94,0.03-13.48,0.09-20.02,0.09c-10.81,0-21.63-0.04-32.77-0.09
		c-6.41-1.2-12.45-2.92-18.59-3.36c-4.56-0.32-9.23,1.03-14.24,1.62c-3.45,0.47-6.52,1.34-9.6,1.36c-8.34,0.03-16.7-0.15-25.03-0.61
		C408.71,320.37,406.81,318.81,404.88,317.92z"/>
	<path class="st3" d="M439.56,534.25c9.73-0.64,19.6-0.43,29.16-2.09c21.65-3.76,42.17-10.97,57.18-28.47
		c9.8-11.43,13.57-25.07,6.11-39.37c-5.57-10.67-14.11-18.07-27.05-16.82c-2.93,0.28-5.71,2.18-8.84,3.03
		c3.19-4.22,6.68-8.13,10.49-12.09c4.34-0.56,8.35-1.33,12.37-1.47c2-0.07,4.05,1.03,6.25,1.85c11.99,5.91,19.41,15.41,23.45,27.92
		c0.8,2.46,1.63,4.91,2.44,7.76c0.1,5.63,0.72,10.93,0.15,16.08c-0.7,6.3-2.41,12.47-3.92,18.88c-3.11,4.84-5.3,10.21-9.02,14
		c-7.59,7.74-16.84,13.21-27.35,16.89c-7.01,1.54-13.7,3.04-20.76,4.5c-9.93,0.22-19.48,0.49-29.3,0.51
		c-5.36-0.9-10.46-1.57-15.21-2.28c3.26-0.54,3-1.84,1.07-3.37C444.41,537.83,441.97,536.06,439.56,534.25z"/>
	<path class="st4" d="M372.71,519.04c4.63,1.77,9.16,3.89,13.9,5.22c8.44,2.37,17,4.3,25.52,6.35c3.97,0.95,7.98,1.75,12.64,2.65
		c2.38,0.5,4.09,0.96,5.8,1.42c0.05,0.53,0.09,1.06,0.14,1.59c-3.75,0.49-7.49,0.98-11.57,1.48c-1.21-0.03-2.08-0.07-3.17-0.37
		c-4.67-1.21-9.13-2.17-13.91-3.19c-1.59-0.36-2.85-0.65-4.29-1.17c-0.9-0.4-1.63-0.56-2.45-0.91c-0.26-0.43-0.5-0.55-1.11-0.6
		c-0.97-0.02-1.62-0.01-2.56-0.16c-3.31-0.99-6.31-1.87-9.34-2.63c-10.63-2.68-21.27-5.31-32.16-8c-0.68-0.28-1.1-0.53-1.66-1.03
		c-6.76-5.05-13.4-9.84-19.98-14.59c0.43-0.66,1.17-1.8,1.94-2.9c0.02,0.04-0.04-0.02,0.27,0.04c1.57-0.57,2.82-1.2,4.37-1.86
		c2.72-1.79,5.27-3.4,7.55-5.35c10.83-9.27,18.77-20.61,23.19-34.66c0.05-0.21,0.02-0.65,0.08-0.95c0.28-1.31,0.51-2.31,0.83-3.56
		c0.37-0.69,0.64-1.12,1-1.21c2.17,0.55,4.3,1.07,6.37,0.9c5.18-0.42,10.68-1.08,14.65,2.73c3.98,3.83,7.87,4.26,11.76,0.05
		c0.01,1.24-0.01,2.13-0.27,3.26c-0.56,1.05-1.03,1.83-1.19,2.68c-2.64,14.78-9.3,27.52-19.17,38.43
		c-4.33,4.78-9.45,8.82-14.61,13.56C367.94,517.25,370.33,518.15,372.71,519.04z"/>
	<path class="st5" d="M604.75,456.17c2.95,40.24-13.24,70.58-45.79,92.32c-14.56,9.72-30.55,15.7-47.87,17.58
		c-8.26,0.9-16.58,1.25-25.08,1.56c3.71-1.6,7.62-2.92,11.87-4.28c7.61-3.3,14.9-6.54,22.46-9.9c4.2-2.45,8.31-4.52,12.01-7.18
		c5.29-3.81,10.29-8.04,15.71-12.15c10.93-8.6,20.8-17.97,28.93-29.06c6.48-8.84,12.37-18.23,14.2-29.26
		c1.36-8.17,1.09-16.63,1.86-24.93C597.15,452.66,600.95,454.41,604.75,456.17z"/>
	<path class="st6" d="M228.17,192.93c2.65-2.75,5.16-5.67,7.99-8.2c3.07-2.74,6.45-5.12,10.08-7.37c3.63,0.98,6.88,2.23,10.13,2.25
		c7.8,0.05,15.61-0.55,23.42-0.73c5.49-0.13,10.98-0.07,16.47-0.01c17.34,0.18,34.68,0.53,52.01,0.52c5.08,0,10.17-1,15.25-1.54
		c5.35,4.28,10.71,8.55,16.03,13.38c-0.75,0.99-1.44,1.75-2.19,1.8c-6.72,0.49-13.44,1.02-20.16,1.21c-3.38,0.09-7-1.41-10.11-0.61
		c-6.75,1.74-13.39,2.52-20.57,1.21c-0.61-0.05-0.91-0.03-1.18-0.12c-14.48-5.29-29.12-6.42-44.01-1.9
		c-4.34,1.32-8.7,2.53-13.45,3.78c-3.36-0.37-6.32-0.71-9.28-1.06c-2.99-0.35-5.98-0.99-8.98-1.02
		C242.44,194.44,235.14,196.2,228.17,192.93z"/>
	<path class="st5" d="M350.4,520.76c10.64,2.65,21.28,5.29,31.91,7.96c3.03,0.76,6.04,1.65,9.38,2.94c0.84,1.35,1.36,2.23,2.44,4.09
		c0.22-2.23,0.32-3.22,0.42-4.2c0.29,0.01,0.53,0.14,0.95,0.81c0.98,0.59,1.72,0.75,2.45,0.91c1.27,0.29,2.53,0.58,4.28,1.15
		c2.78,2.91,0.48,2.1-0.85,2.24c-1.35,0.14-3.64,0.2-3.86,0.88c-2.08,6.28-3.81,12.69-5.63,19.06c-13.13-4.37-26.25-8.74-39.38-13.1
		c-3.03,10.21-10.15,16.15-19.18,20.86c-0.72,0.32-0.91,0.56-1.1,0.79c-0.63,0.3-1.26,0.61-2.39,0.99
		c-0.69,0.31-0.88,0.55-1.08,0.79c0,0-0.23,0.13-0.59,0.14c-0.61,0.21-0.86,0.41-1.1,0.61c-0.3,0.09-0.6,0.18-1.42,0.17
		c-2.54-1.31-2.99-0.21-2.94,1.62c-0.32,0.07-0.63,0.15-1.54,0.19c-1.61,0.52-2.63,1.06-3.66,1.61c-1.26,0.54-2.52,1.09-4.15,1.54
		c-0.67-0.24-0.89-0.14-1.02,0.2c-0.98,0.27-1.95,0.53-3.41,0.62c-1.21,0.25-1.93,0.67-2.66,1.1c-0.39,0.05-0.77,0.1-1.49-0.15
		c-0.62-0.56-0.9-0.82-1.19-1.08c-0.26,0.46-0.53,0.92-0.79,1.38c-0.44,0.22-0.87,0.43-1.64,0.55c-0.63-0.19-0.84-0.07-0.94,0.27
		c-0.36,0.09-0.71,0.19-1.56,0.01c-2.12,0.11-3.75,0.5-5.38,0.88c-0.97,0.29-1.94,0.58-3.45,0.62c-3.77-0.62-7-1.32-10.23-1.29
		c-2.88,0.03-5.75,0.86-9.48,1.48c-0.1-0.33-0.51-1.72-0.92-3.1c1.24-0.3,2.52-0.51,3.71-0.94c1.62-0.59,3.19-1.35,4.78-2.04
		c0.36-0.02,0.73-0.03,1.74-0.02c2.73-0.52,4.81-1.08,6.9-1.63c1.19-0.05,2.37-0.11,4.29-0.13c2.53-0.53,4.33-1.09,6.13-1.65
		c0.89-0.05,1.78-0.11,3.32-0.14c1.62-0.52,2.6-1.07,3.59-1.62c0.39-0.04,0.78-0.07,1.63,0.12c1.22-0.22,1.97-0.67,2.72-1.11
		c1.2-0.32,2.39-0.63,4.26-0.93c1.9-0.58,3.13-1.18,4.37-1.78c0,0,0.04,0.03,0.32,0.03c0.96-0.56,1.64-1.12,2.31-1.68
		c0.35-0.04,0.7-0.09,1.61-0.14c0.99-0.54,1.42-1.06,1.86-1.59c0.35-0.05,0.7-0.11,1.61-0.17c0.99-0.55,1.42-1.09,1.85-1.63
		c0,0,0.39-0.08,0.8-0.17c0.58-0.32,0.76-0.55,0.93-0.78c0,0,0-0.01,0.18-0.09c0.41-0.23,0.56-0.43,0.66-0.69
		c0.14-0.03,0.29-0.05,0.97-0.11c1.21-0.89,1.87-1.74,2.54-2.6c2.48-2.82,4.96-5.65,7.83-8.85c0.52-0.87,0.66-1.36,0.8-1.85
		c0,0,0.01,0.01,0.4,0.01c1.25,0,2.12-0.07,2.97,0.01c9.59,0.89,11.4-4.3,8.52-13C351.84,526.37,351.17,523.55,350.4,520.76z"/>
	<path class="st7" d="M363.36,177.6c-4.91,0.79-9.99,1.79-15.08,1.79c-17.34,0.01-34.68-0.34-52.01-0.52
		c-5.49-0.06-10.99-0.12-16.47,0.01c-7.81,0.19-15.61,0.79-23.42,0.73c-3.25-0.02-6.5-1.27-9.83-2.31
		c14.12-10.39,29.87-15.51,47.04-17.24c12.15-1.23,24.12-0.85,35.82,2.12C341.41,165.23,353.12,169.51,363.36,177.6z"/>
	<path class="st8" d="M132.32,516.52c-4.85,4.03-9.46,8.43-14.62,11.99c-8.66,5.98-17.28,12.28-26.66,16.83
		c-8.69,4.22-18.38,5.46-28,1.77c-2.66-1.02-5.49-1.57-8.61-2.32c-3.25-1.75-6.33-3.24-8.97-5.33c-4.37-3.45-8.46-7.29-12.49-11.26
		c3.1-1.46,5.95-3.14,8.98-3.65c3.58-0.6,7.32-0.3,10.98-0.2c5.37,0.16,10.73,0.57,16.1,0.74c4.81,0.15,9.65,0.32,14.44,0.01
		c1.03-0.07,1.93-2.16,3.27-3.37c1.93,0.08,3.56-0.05,5.04,0.37c7.75,2.19,15.52,2.23,23.22,0.1
		C120.85,520.58,126.56,518.43,132.32,516.52z"/>
	<path class="st9" d="M42.21,394.02c4.72-3.43,9.45-6.85,14.81-10.35c3.32,0.18,6.01,0.63,8.7,0.63c2.69,0,5.43-0.91,8.06-0.62
		c6.08,0.66,12.08,2.14,18.16,2.58c2.78,0.2,6.73,1.9,8.64-2.74c5.36,2.18,9.49-0.19,13.85-2.54c4.85,3.98,9.66,7.61,13.97,11.78
		c2.8,2.71,4.88,6.22,6.94,9.32c-1.88-0.25-3.43-0.7-4.95-0.62c-8.31,0.45-16.62,1.62-24.91,1.42c-13.4-0.34-26.78-1.56-40.18-2.39
		c-0.41-0.03-0.9,0.04-1.24,0.25c-4.07,2.57-8.48,1.71-12.85,1.39c-4.46-0.33-8.93-0.63-13.27-1.21c0.93-1.86,1.73-3.45,2.52-5.04
		c0,0,0.02,0.04,0.29,0C41.42,395.22,41.82,394.62,42.21,394.02z"/>
	<path class="st10" d="M445.69,319.76c4.62-0.61,9.29-1.96,13.85-1.64c6.13,0.43,12.18,2.16,18.76,3.6
		c8.82,4.59,15.79,10.52,21.16,18.59c0.18,0.45,0.39,0.58,0.87,0.79c0.42,0.66,0.65,1.14,0.95,1.91c2.3,6.01,4.53,11.73,6.71,17.87
		c0,5.16,0.03,9.91,0.01,14.99c-2.14,5.68-4.23,11.02-6.51,16.57c-2.04,2.47-3.88,4.73-5.71,7c0.42-1.2,0.66-2.52,1.3-3.58
		c14.36-23.76-0.64-53.1-21.4-61.95c-15.77-6.72-29.75-3.91-42.86,7c-4.09,3.4-9.13,5.86-14.08,7.86
		c-6.78,2.74-14.16-1.61-16.13-9.28c6.19,4.52,11.88,2.74,17.26-1.05C428.56,332.34,437.09,326,445.69,319.76z"/>
	<path class="st11" d="M86.38,521.78c-0.96,1.16-1.87,3.25-2.9,3.32c-4.79,0.31-9.63,0.14-14.44-0.01
		c-5.37-0.17-10.73-0.58-16.1-0.74c-3.66-0.11-7.4-0.41-10.98,0.2c-3.03,0.51-5.88,2.19-9.15,3.4
		c-7.43-6.29-12.97-13.83-17.15-22.93c0.64-0.69,1.17-0.87,1.72-1c4.1-0.96,8.75-0.1,11.46-5.07c1.1-2.02,3.89-2.03,5.16,0.72
		c1.29,2.78,3.2,2.81,5.7,2.14c3.22-0.86,6.54-2.15,9.46,1.15c0.41,0.46,2.27-0.45,3.73-0.59c1.79,1.66,3.28,3.23,4.85,4.72
		c7,6.66,14.94,11.49,24.9,12.82C84.09,520.52,85.23,521.15,86.38,521.78z"/>
	<path class="st12" d="M544.4,386.38c-1.29,3-2.59,6-4.01,9.3c13.94,0.99,27.39,3.27,38.34,13.38c-2.6,2.05-5.14,3.48-7.57,5.08
		c-0.74,0.49-1.2,1.43-2.06,2.04c-5.57-2.43-10.86-4.73-16.38-7.27c-8.23-3.54-16.64-2.18-24.9-2.28c-1.72-0.02-3.44,1.09-5.51,1.68
		c-1.41,0.29-2.52,0.48-3.54,0.89c-5.1,2.03-10.17,4.12-15.11,5.92c4.68-4.53,9.22-8.79,14.03-13.17c5.02-6.2,9.77-12.28,14.77-18.5
		c1.21-1.29,2.18-2.44,3.31-3.33c1.56,0.89,3.09,1.31,4.3,2.2C541.65,383.48,542.97,385.01,544.4,386.38z"/>
	<path class="st13" d="M58.63,343.62c2.14-6.69,4.28-13.38,6.83-19.96c4.24,0.79,8.08,2.01,11.93,2.05
		c8.56,0.09,17.13-0.66,25.7-0.57c4.54,0.05,9.07,1.12,13.48,2c-5.87,6.26-11.61,12.26-17.72,18.25
		c-10.29-0.41-20.21-0.8-30.13-1.23C65.35,344.02,61.99,343.8,58.63,343.62z"/>
	<path class="st14" d="M116.69,326.87c-4.53-0.61-9.06-1.69-13.6-1.74c-8.56-0.09-17.13,0.66-25.7,0.57
		c-3.85-0.04-7.68-1.26-11.7-2.25c3.43-6.68,7.04-13.05,10.9-19.56c0.19,2.13-0.64,5.95,0.2,6.38c2.38,1.23,5.43,1.3,8.24,1.42
		c13.69,0.61,27.39,1.19,41.09,1.55c3.78,0.1,7.58-0.76,11.37-0.87c3.82-0.11,7.66,0.17,11.62,0.54c-2.47,1-5.15,1.53-7.68,2.51
		c-6.5,2.53-12.92,5.25-19.61,7.95c-0.42,0.32-0.61,0.57-0.81,0.79c-0.01-0.03,0.04,0.01-0.15,0.08c-0.45,0.21-0.62,0.42-0.9,0.75
		c-0.18,0.05-0.54,0.07-0.77,0.13c-0.41,0.31-0.6,0.55-0.8,0.78c-0.01-0.01,0.02,0-0.16,0.07c-0.42,0.21-0.58,0.41-0.9,0.72
		C116.98,326.81,116.84,326.84,116.69,326.87z"/>
	<path class="st15" d="M342.48,346.27c4.4,2.97,8.78,5.96,13.2,8.89c14.86,9.83,27.54,21.98,37.3,37.13
		c2.57,3.99,4.39,8.5,6.32,13.07c-1.18,1.84-2.14,3.36-3.31,4.7c-0.91-1.34-1.59-2.48-2.29-3.95c-4.03-6.58-8.06-12.84-12.14-19.39
		c-6.92-6.62-13.79-12.94-20.74-19.55c-6.96-5.11-13.85-9.93-20.93-15c-2.96-1.97-5.59-4.03-8.53-5.37
		c-9.18-4.16-18.47-8.05-27.93-12.29c-2.94-0.98-5.67-1.7-8.4-2.44c-6.4-1.74-12.79-3.48-18.78-5.25c2.7-0.03,5.03,0.19,7.29-0.12
		c1.94-0.27,4.62-0.02,4.83-3.37c6.46,2.07,12.6,4.14,18.93,6.44c6.98,2.99,13.78,5.75,20.71,8.78
		C332.92,341.32,337.7,343.79,342.48,346.27z"/>
	<path class="st16" d="M100.23,383.53c-1.56,4.61-5.51,2.92-8.29,2.72c-6.08-0.44-12.08-1.92-18.16-2.58
		c-2.64-0.28-5.37,0.62-8.06,0.62c-2.69,0-5.38-0.45-8.43-0.75c-0.63-6.27-0.91-12.49-0.77-19.12c12.22-0.12,24.01,0.18,35.85,0.86
		C92.38,372.83,94.82,378.86,100.23,383.53z"/>
	<path class="st17" d="M92.33,364.9c-11.8-0.3-23.59-0.59-35.79-0.89c0.28-6.63,0.95-13.25,1.86-20.13
		c3.59-0.07,6.95,0.14,10.31,0.29c9.92,0.43,19.85,0.82,30.02,1.51C94.92,351.58,93.57,358.22,92.33,364.9z"/>
	<path class="st17" d="M326.86,194.86c6.85,1.3,13.49,0.52,20.24-1.23c3.12-0.8,6.74,0.7,10.11,0.61
		c6.73-0.18,13.45-0.71,20.16-1.21c0.75-0.05,1.44-0.81,2.31-1.53c4.16,4.54,8.17,9.37,12.13,14.86
		c-8.02,1.56-15.97,2.83-23.96,3.25c-6.4,0.33-12.85-0.37-19.56-0.66c-1.2-0.63-2.11-1.21-3.16-2.06c-1.21-1.22-2.19-2.34-3.39-3.08
		C336.82,200.76,331.83,197.83,326.86,194.86z"/>
	<path class="st18" d="M528.7,314.4c-2.17-2.68-4.14-5.57-6.57-7.98c-5.21-5.17-10.09-11.07-16.17-14.85
		c-6.64-4.12-14.37-6.59-21.85-9.06c-10.61-3.5-21.49-2.63-32.09,0.15c-10.82,2.84-20.49,8.37-29.52,15.06
		c-1.26,0.93-2.68,1.62-4.34,2.43c2.65-3.06,5.34-6.49,8.64-9.13c9.84-7.87,21.13-13.1,33.34-15.17c9.07-1.54,18.33-1.39,27.63,0.9
		c17.11,4.21,30.76,13.73,42.58,26.53c1.95,2.11,3.51,4.6,4.97,7.26C532.93,312.08,530.82,313.24,528.7,314.4z"/>
	<path class="st19" d="M497.55,563.4c-3.92,1.32-7.84,2.63-11.95,4.21c-6.17,0.46-12.14,0.76-18.12,0.82
		c-2.71,0.03-5.42-0.41-8.55-0.98c-2.12-3.85,1.13-4.96,2.71-6.67c4.49-4.88,4.41-10.72-0.47-15.19c9.55-0.26,19.11-0.53,28.92-0.5
		c1.54,2.29,2.41,5.08,4.21,6.08c2.52,1.41,2.27,3.19,2.4,5.31C496.85,558.8,497.26,561.09,497.55,563.4z"/>
	<path class="st9" d="M400.68,224.88c1.04,2.78,2.07,5.56,2.97,8.91c-0.25,3.62-0.37,6.68-0.88,9.73c-9.41,0-18.43-0.07-27.44,0.04
		c-2.51,0.03-5.02,0.58-7.57,0.53c-2.06-6.04-4.07-11.72-5.76-17.45c5.75-0.9,11.33-3,16.57-2.32
		C386.01,225.3,393.42,221.85,400.68,224.88z"/>
	<path class="st20" d="M52.63,502.24c-1.19,0.27-3.06,1.18-3.47,0.72c-2.92-3.3-6.24-2.01-9.46-1.15c-2.5,0.67-4.41,0.65-5.7-2.14
		c-1.27-2.75-4.06-2.74-5.16-0.72c-2.71,4.97-7.36,4.11-11.46,5.07c-0.55,0.13-1.09,0.3-1.86,0.73c-6-10.89-8.72-22.82-8.62-35.59
		c1.25,5.72,1.42,5.82,7.5,5.92c0.96,0.01,1.91,0.63,2.89,0.73c3.11,0.3,6.23,0.49,9.36,0.94c0.01,0.21,0.03,0.64,0.06,0.94
		c5.16,6.13,10.14,12.11,15.52,17.68c1.4,1.45,4.05,1.62,6.36,2.55C50.1,499.47,51.37,500.85,52.63,502.24z"/>
	<path class="st16" d="M400.66,224.53c-7.23-2.68-14.65,0.77-22.08-0.21c-5.23-0.68-10.81,1.42-16.69,2.13
		c-0.69-0.31-0.92-0.48-1.18-0.96c-4.06-5.71-8.1-11.11-12.13-16.5c6.43,0.24,12.88,0.94,19.28,0.61c7.99-0.42,15.95-1.68,24-2.93
		C394.83,212.27,397.73,218.23,400.66,224.53z"/>
	<path class="st21" d="M342.67,346.03c-4.97-2.23-9.75-4.71-14.46-7.7c6.32-3.47,12.95-5.8,18.7-9.55
		c7.32-4.78,13.93-10.7,21.12-16.14c0.64-0.02,1-0.02,1.73-0.07c4.77-0.3,9.18-0.55,13.59-0.81c-3.05,3.76-5.8,7.82-9.19,11.22
		C364.92,332.25,354.19,339.47,342.67,346.03z"/>
	<path class="st12" d="M460.91,545.35c5.15,4.71,5.23,10.54,0.73,15.42c-1.58,1.71-4.82,2.82-3.1,6.62
		c-9.64-0.61-19.3-1.52-29.12-2.92c1.49-2.77,3.35-4.94,4.74-7.38c1.53-2.68,2.65-5.61,3.92-8.45c0.81-1.82,1.58-3.66,2.36-5.55
		c-0.01-0.06-0.06-0.18,0.3-0.14c1.78,0.08,3.19,0.13,4.61,0.17C450.45,543.79,455.55,544.45,460.91,545.35z"/>
	<path class="st22" d="M569.38,416.31c0.59-0.74,1.04-1.68,1.78-2.17c2.43-1.6,4.97-3.03,7.63-4.77c4.5,3.63,9.37,7.05,13.07,11.49
		c8.22,9.86,11.67,21.85,12.94,34.94c-3.85-1.38-7.65-3.14-11.92-5.2c-1.21-2.47-1.97-4.62-2.7-6.79
		C586.31,432.21,578.92,423.41,569.38,416.31z"/>
	<path class="st13" d="M445.31,319.74c-8.22,6.26-16.75,12.6-25.44,18.71c-5.38,3.78-11.07,5.56-17.23,0.71
		c-3.41-3.23-2.21-7.08-1.52-10.6c0.69-3.5,2.16-6.83,3.53-10.44c2.17,0.69,4.06,2.25,6.04,2.36c8.33,0.46,16.68,0.64,25.03,0.61
		C438.78,321.08,441.85,320.21,445.31,319.74z"/>
	<path class="st19" d="M506.27,438.47c-3.48,3.92-6.96,7.83-10.48,12.07c-4.23,6.23-9.75,8.68-17.11,6.54
		c-2.34-4.12-2.55-7.7-0.72-11.44c1.15-2.35,2.11-4.79,3.39-7.36c3.82-4.5,7.4-8.81,11.25-13.26c2.4-2.11,4.53-4.1,6.66-5.74
		c-0.82,3.05-2.73,6.01-2.2,8.4c0.71,3.18,3.14,6.07,5.2,8.79C503.09,437.54,504.91,437.83,506.27,438.47z"/>
	<path class="st23" d="M499.27,418.94c-2.13,1.98-4.27,3.97-7.03,6.08c-5.04-0.78-9.44-1.68-13.85-2.59
		c5.12-6.92,10.24-13.84,15.83-21.01c0.84-0.83,1.21-1.42,1.59-2c0,0,0.01,0.04-0.01,0.04c1.82-2.26,3.65-4.53,5.96-6.79
		c1.5,1.38,2.26,3.31,3.62,4c2.13,1.08,4.76,1.07,6.99,2.01c1.83,0.77,3.39,2.24,5.06,3.4c-4.54,4.26-9.08,8.53-14.03,13.08
		c-1.07,0.87-1.73,1.45-2.59,2.12c-0.45,0.25-0.61,0.48-0.67,0.79c0,0.01-0.01,0-0.2,0.09
		C499.51,418.41,499.35,418.65,499.27,418.94C499.28,418.95,499.27,418.94,499.27,418.94z"/>
	<path class="st18" d="M383.64,311.72c-4.71,0.29-9.12,0.55-13.83,0.55c0.06-0.68,0.42-1.1,0.78-1.54
		c4.83-5.84,9.66-11.68,14.77-17.59c4.11-6.85,7.93-13.62,11.77-20.73c3.96-9.43,5.57-19.04,6.03-28.9
		c0.11-3.06,0.23-6.11,0.57-9.42c0.84,6.14,1.89,12.52,1.96,18.92c0.27,21.96-7.78,40.94-20.67,58.05
		C384.81,311.38,384.31,311.49,383.64,311.72z"/>
	<path class="st24" d="M440.46,543.16c-0.79,1.83-1.55,3.67-2.37,5.49c-1.27,2.84-2.39,5.77-3.92,8.45c-1.39,2.44-3.25,4.6-5.03,7.2
		c-4.47-0.39-8.81-1.1-13.5-2.23c0.05-5.68-5.04-9.4-3.5-15.59c0.87-3.52,1.52-6.41,4.04-8.84c0.88,0.04,1.75,0.08,3.19,0.36
		C426.77,539.87,433.61,541.51,440.46,543.16z"/>
	<path class="st17" d="M227.89,192.99c7.25,3.21,14.55,1.45,21.75,1.52c3,0.03,5.99,0.67,8.98,1.02c2.96,0.35,5.92,0.69,9.1,1.31
		c-2.91,2.11-6.03,3.94-9.45,5.85c-3.5,2.15-6.71,4.23-10.27,6.29c-2.53-0.54-4.69-1.45-6.88-1.52c-8.04-0.26-16.09-0.24-24.14-0.32
		C220.53,202.45,224.07,197.75,227.89,192.99z"/>
	<path class="st16" d="M216.7,207.21c8.33,0.02,16.38,0,24.42,0.26c2.19,0.07,4.35,0.98,6.8,1.82c-4.35,5.41-8.98,10.52-13.97,15.62
		c-1.21-0.05-2.13,0.11-2.9-0.17c-8.03-2.92-16.16-1.78-24.3-0.7c-0.02-0.68-0.03-1.36-0.06-2.38c-0.01-0.34,0-0.31,0.25-0.33
		c0.36-0.62,0.48-1.21,0.6-1.81C210.49,215.44,213.45,211.36,216.7,207.21z"/>
	<path class="st25" d="M277.28,571.31c-1.19,0.7-2.76,1.46-4.38,2.05c-1.2,0.43-2.47,0.63-3.71,0.94c0.41,1.38,0.83,2.77,0.92,3.1
		c3.73-0.62,6.6-1.45,9.48-1.48c3.23-0.03,6.46,0.66,9.92,1.26c-14.13,2.21-28.49,3.49-43.02,1.9c-11.56-1.27-23.09-2.87-33.67-7.81
		c-8.09-3.78-15.54-8.98-23.42-13.81c1.16,0.21,2.54,0.54,3.76,1.2c12.75,6.86,25.98,12.02,40.57,12.76
		c7.84,0.4,15.67,1.49,23.51,1.52C263.79,572.96,270.34,571.89,277.28,571.31z"/>
	<path class="st26" d="M415.97,537.39c-2.3,2.69-2.95,5.58-3.82,9.1c-1.53,6.19,3.55,9.91,3.16,15.53
		c-6.26-1.1-12.52-2.55-18.77-4.02c-1.39-0.33-2.78-0.67-4.41-1.21c1.58-6.57,3.31-12.98,5.39-19.26c0.22-0.67,2.51-0.74,3.86-0.88
		c1.33-0.14,3.63,0.67,1.17-2.18C406.84,535.22,411.3,536.17,415.97,537.39z"/>
	<path class="st27" d="M528.71,314.73c2.11-1.49,4.22-2.66,6.66-3.86c6.11,6.62,9.88,14.45,12.31,22.89
		c1.61,5.56,2.44,11.35,3.26,17.44c-4.17-0.18-7.97-0.76-11.8-1.72c-0.33-2.78-0.64-5.19-1.07-7.93
		c-2.33-6.91-4.54-13.49-6.75-20.07C530.45,319.34,529.58,317.2,528.71,314.73z"/>
	<path class="st12" d="M372.82,518.76c-2.5-0.61-4.88-1.5-7.54-2.5c5.16-4.74,10.28-8.78,14.61-13.56
		c9.88-10.91,16.53-23.66,19.17-38.43c0.15-0.85,0.63-1.63,1.38-2.42c2.03,0.5,3.63,0.96,5.23,1.43
		c-4.34,20.32-13.81,37.63-28.98,51.58C375.42,516.03,374.19,517.26,372.82,518.76z"/>
	<path class="st19" d="M26.65,476.54c-3.12-0.23-6.24-0.42-9.35-0.73c-0.98-0.1-1.92-0.72-2.89-0.73c-6.08-0.09-6.25-0.2-7.48-6.32
		c0.25-7.09,0.75-13.94,1.76-21.12c4.02,0.56,7.53,1.44,11.06,2.54c0.01,0.22,0.06,0.65,0.04,1.03
		C20.87,460.24,22.26,468.82,26.65,476.54z"/>
	<path class="st19" d="M539.16,349.85c3.8,0.58,7.61,1.16,11.76,1.74c2.36,10.42-0.38,20.13-3.87,29.72
		c-0.59,1.61-1.43,3.12-2.4,4.87c-1.68-1.17-3-2.7-4.58-3.86c-1.21-0.89-2.74-1.31-4.3-2.54c0.97-5.66,2.11-10.7,3.28-16.17
		C539.1,358.75,539.13,354.3,539.16,349.85z"/>
	<path class="st21" d="M19.74,449.95c-3.51-0.88-7.03-1.76-10.87-2.63c1.49-10.32,5.64-19.68,11.26-28.92
		c2.47-0.02,4.52,0.27,6.55,0.85c-0.03,0.67-0.04,1.06-0.37,1.53c-1.56,4.75-2.81,9.42-4.29,14.35
		C21.1,440.24,20.42,445.1,19.74,449.95z"/>
	<path class="st28" d="M478.1,422.49c4.69,0.84,9.1,1.75,13.87,2.65c-3.22,4.32-6.8,8.64-11,13.13c-4.11,0.04-7.87,0.89-10.38-2.72
		C473,431.22,475.41,426.89,478.1,422.49z"/>
	<path class="st21" d="M396.21,410.26c0.96-1.53,1.91-3.06,3.2-4.59c4.9,9.85,7.33,20.26,7.73,31.51c-1.87,0.69-3.37,0.98-5.08,1
		c-1.19-5.71-2.17-11.14-3.14-16.94C398.01,417.33,397.11,413.79,396.21,410.26z"/>
	<path class="st29" d="M470.38,435.83c2.72,3.33,6.48,2.49,10.36,2.62c-0.66,2.4-1.63,4.84-2.78,7.19
		c-1.83,3.73-1.62,7.32,0.44,11.21c-6.91-2.42-10.69-9.51-9.18-16.89C469.48,438.66,469.85,437.39,470.38,435.83z"/>
	<path class="st30" d="M402.27,438.45c1.5-0.3,3-0.59,4.83-0.89c-0.22,8.32-0.77,16.65-1.37,25.34c-1.66-0.1-3.26-0.57-5.06-1.29
		c-0.17-1.16-0.15-2.06-0.11-3.68c0.49-6.08,0.96-11.45,1.52-17.14C402.21,439.8,402.24,439.12,402.27,438.45z"/>
	<path class="st15" d="M26.7,418.95c-2.05-0.29-4.1-0.58-6.49-0.86c5.23-6.79,10.77-13.61,16.42-20.32c0.77-0.91,2.13-1.3,3.53-1.92
		c-0.48,1.61-1.28,3.2-2.43,5.24C33.81,407.34,30.26,413.15,26.7,418.95z"/>
	<path class="st3" d="M440.45,543.09c-6.83-1.58-13.68-3.22-20.75-5.1c3.52-0.73,7.27-1.23,11.01-1.72
		c-0.05-0.53-0.09-1.06-0.14-1.59c-1.71-0.46-3.42-0.92-5.46-1.42c2.36,0.17,5.06,0.38,8.1,1.03c1.62,1.49,3.09,2.37,4.12,3.63
		c1.22,1.49,2.05,3.31,3.06,4.99C440.39,542.91,440.44,543.03,440.45,543.09z"/>
	<path class="st4" d="M440.75,542.95c-1.36-1.72-2.2-3.54-3.42-5.03c-1.03-1.26-2.5-2.14-3.81-3.5c1.74-0.31,3.51-0.3,5.66-0.23
		c2.79,1.87,5.23,3.64,7.6,5.52c1.92,1.53,2.18,2.83-1.07,3.37C443.94,543.08,442.52,543.04,440.75,542.95z"/>
	<path class="st25" d="M293.61,576.62c1.29-0.42,2.92-0.8,4.75-0.91C297.03,576.22,295.49,576.44,293.61,576.62z"/>
	<path class="st25" d="M322.98,569.48c-0.34-1.85,0.11-2.96,2.42-1.62C324.89,568.49,324.08,569,322.98,569.48z"/>
	<path class="st25" d="M317.8,571.29c0.72-0.58,1.74-1.13,3.11-1.65C320.21,570.23,319.16,570.78,317.8,571.29z"/>
	<path class="st18" d="M417.58,300.17c-0.36,0.6-1.01,1.21-1.96,1.82C415.98,301.39,416.64,300.78,417.58,300.17z"/>
	<path class="st25" d="M306.52,574.73c0.45-0.43,1.18-0.85,2.09-1.09C308.12,574.14,307.46,574.43,306.52,574.73z"/>
	<path class="st10" d="M495.51,399.37c-0.08,0.62-0.45,1.21-1.11,1.81C494.48,400.58,494.85,399.96,495.51,399.37z"/>
	<path class="st1" d="M207.32,219.68c0.1,0.44-0.02,1.04-0.4,1.66C206.81,220.85,206.95,220.34,207.32,219.68z"/>
	<path class="st25" d="M303.07,574.9c-0.03-0.49,0.24-0.95,0.5-1.41c0.29,0.26,0.57,0.52,0.9,1.04
		C304.13,574.84,303.74,574.88,303.07,574.9z"/>
	<path class="st15" d="M41.93,394.08c-0.11,0.54-0.5,1.14-1.18,1.77C40.85,395.31,41.25,394.73,41.93,394.08z"/>
	<path class="st25" d="M327.29,567.65c0-0.19,0.24-0.39,0.73-0.62C328.02,567.22,327.78,567.43,327.29,567.65z"/>
	<path class="st25" d="M332.44,565.08c-0.03-0.18,0.16-0.41,0.57-0.72C333.04,564.54,332.85,564.78,332.44,565.08z"/>
	<path class="st25" d="M300.41,575.69c-0.1-0.34,0.1-0.46,0.5-0.26C300.99,575.54,300.61,575.69,300.41,575.69z"/>
	<path class="st25" d="M328.98,566.87c-0.03-0.19,0.16-0.42,0.58-0.73C329.59,566.32,329.4,566.57,328.98,566.87z"/>
	<path class="st25" d="M312.53,573.03c-0.07-0.37,0.15-0.47,0.53-0.2C313.14,572.96,312.73,573.06,312.53,573.03z"/>
	<path class="st18" d="M415.12,302.07c0.11,0.2-0.04,0.42-0.45,0.7C414.53,302.56,414.68,302.33,415.12,302.07z"/>
	<path class="st26" d="M210.28,538.3c7.46,4.21,14.52,9.65,22.47,12.4c18,6.21,35.48,4.59,51.08-7.71c1.21-0.96,2.18-2.3,3.11-3.57
		c2-2.72,1.71-4.85-1.76-6.35c9.97,0.59,20.44-4.75,30.03,1.93c0.1,0.07,0.28,0.01,0.43,0.01c-1.4,9.6-7.99,14.78-15.84,18.2
		c-11.43,4.98-23.58,7.21-36.01,7.5c-7.58,0.18-15.2,0.44-22.75-0.08c-13.73-0.94-27.29-3.2-40.36-7.86
		c-3.63-1.3-7.18-2.79-11.2-4.56c-0.9-0.5-1.38-0.63-1.86-0.76c0,0,0.03-0.02-0.04-0.15c-0.3-0.08-0.54-0.02-0.78,0.04
		c-6.63-2.36-13.26-4.73-19.74-7.6c3.14-1.49,6.18-3.41,9.11-3.25c4.55,0.25,8.99,2.11,13.72,1.26c1.18-0.21,2.48,0.31,4.72,0.65
		c-1.97,1.84-3.02,2.83-4.08,3.81c0.11,0.28,0.23,0.56,0.34,0.85C197.35,541.46,203.81,539.88,210.28,538.3z"/>
	<path class="st24" d="M315.68,534.62c-0.19,0.39-0.37,0.44-0.47,0.38c-9.59-6.68-20.06-1.34-30.32-2.06
		c-22.6,0.68-43.22-4.49-60.74-19.85c2.19-0.65,4.41-0.25,6.26-0.91c3.32-1.19,6.45-2.95,9.59-4.61c3.52-1.86,5.36-1.18,6.68,2.59
		c0.21,0.6,0.8,1.07,0.71,0.96c2.17-0.67,3.72-1.62,5.22-1.54c6.11,0.34,12.19,1.24,18.29,1.42c3.28,0.09,6.59-0.86,9.9-1.35
		c0.42-1.64,0.81-3.19,1.21-4.73c9.02,2.85,17.8,6.2,25.49,12.05C313.21,521.29,316.21,526.86,315.68,534.62z"/>
	<path class="st18" d="M199.84,416.31c2.45-5.88,4.3-12.12,7.46-17.57c11.4-19.64,26.6-35.63,46.19-47.85
		c8.45,3.4,16.32,6.9,23.91,10.55c-2.7,1.53-5.14,2.91-7.88,4.31c-6.75,4.15-13.18,8.28-19.91,12.45
		c-5.3,4.42-10.31,8.79-15.32,13.19c0,0.03,0.04-0.01-0.21,0.02c-0.59,0.36-0.94,0.69-1.54,1.16c-4.2,5.92-8.14,11.7-12.09,17.48
		c-1.95,5.1-3.9,10.2-6.17,15.45C209.26,422.53,204.55,419.42,199.84,416.31z"/>
	<path class="st12" d="M281.73,504.76c-0.11,1.69-0.51,3.24-0.93,4.88c-3.31,0.48-6.62,1.44-9.9,1.35
		c-6.1-0.18-12.19-1.09-18.29-1.42c-1.5-0.08-3.05,0.86-5.22,1.54c0.09,0.11-0.5-0.35-0.71-0.96c-1.32-3.77-3.16-4.45-6.68-2.59
		c-3.14,1.66-6.27,3.42-9.59,4.61c-1.85,0.67-4.07,0.27-6.32,0.62c-5.37-5.48-10.54-11.22-15.37-17.29
		c9.67,0.28,18.78-3.75,28.27-1.36c3.32,0.84,7.36-0.79,10.43,0.42c3.31,1.31,5.42,0.8,7.79-1.19
		C263.96,497.11,272.7,500.86,281.73,504.76z"/>
	<path class="st22" d="M210.13,538.06c-6.31,1.82-12.78,3.4-19.24,4.98c-0.12-0.28-0.23-0.56-0.34-0.85
		c1.06-0.99,2.11-1.97,4.08-3.81c-2.23-0.33-3.54-0.86-4.72-0.65c-4.74,0.85-9.17-1.01-13.72-1.26c-2.93-0.16-5.96,1.76-9.22,2.94
		c-4.04-0.51-7.87-0.98-11.56-2c-4.17-1.15-5.31-4.32-2.95-8.2c3.87-6.37,10.1-9.19,16.87-11.04c7.17-1.96,14.2-0.65,21.6,0.99
		C197.52,525.41,203.75,531.61,210.13,538.06z"/>
	<path class="st20" d="M255.03,493.11c-2.19,2.24-4.3,2.74-7.61,1.43c-3.06-1.21-7.11,0.42-10.43-0.42
		c-9.48-2.39-18.6,1.64-28.33,1.05c-2.82-4.25-5.24-8.51-7.63-13.18c-0.14-0.6-0.31-0.8-0.48-1c-0.24-0.42-0.47-0.84-0.38-1.37
		c2.71,0.13,5.08,0.37,6.6,0.52c1.31-1.98,1.89-3.94,2.96-4.29c3.63-1.17,7.4-2.08,11.18-2.38c1.17-0.09,2.69,1.94,3.69,3.29
		c0.38,0.51-0.24,1.81-0.53,3.5c2.97-0.76,5.37-1.37,7.76-1.98c0,0-0.02,0.03,0.07,0.22c0.33,0.35,0.56,0.52,0.8,0.69
		C240.08,483.75,247.47,488.31,255.03,493.11z"/>
	<path class="st27" d="M199.69,416.59c4.86,2.83,9.57,5.94,14.5,9.23c-1.38,8.87-0.72,17.48,0.74,26.41
		c-4.49-0.58-8.28-1.22-12.09,2.12c-2,1.76-5.39,1.85-8.16,2.7c-1.77-12.61,0.18-24.86,3.45-36.97
		C198.43,418.97,199.06,417.95,199.69,416.59z"/>
	<path class="st19" d="M194.65,457.43c2.8-1.22,6.19-1.31,8.2-3.07c3.81-3.34,7.6-2.7,12.06-1.76c4.36,6.98,8.29,14.01,12.45,20.9
		c1.01,1.67,2.78,2.85,4.34,4.52c-2.26,0.88-4.65,1.49-7.62,2.25c0.29-1.69,0.91-2.99,0.53-3.5c-1-1.34-2.52-3.38-3.69-3.29
		c-3.77,0.3-7.55,1.21-11.18,2.38c-1.08,0.35-1.66,2.31-2.96,4.29c-1.52-0.15-3.9-0.39-6.58-0.78
		C198.12,472.09,196.37,464.95,194.65,457.43z"/>
	<path class="st31" d="M220.79,410.06c3.6-5.8,7.54-11.58,11.99-17.54c0.85-0.51,1.2-0.83,1.54-1.15c0,0-0.05,0.04,0.26,0.09
		c2.16,1.37,4.21,2.49,5.84,4.06c2.77,2.68,5.27,5.65,7.89,8.51c-2.19,5.69-4.38,11.38-6.76,17.32c-1.6-0.24-3.4-0.33-4.33-1.3
		C232.67,415.27,227.62,411.5,220.79,410.06z"/>
	<path class="st11" d="M283.03,495.32c6.57,1.17,13.25,2.55,19.87,4.16c5.55,1.35,10.97,3.48,16.58,4.25
		c3.28,0.45,6.82-1.07,10.6-1.64c-0.4,1.21-1.14,2.35-1.57,3.01c6.58,4.75,13.21,9.54,19.66,14.63c-2.39,2.27-6.98,0.86-7.3,5.53
		c-5.53-10.18-15.4-13.98-25.21-17.65c-10.19-3.82-20.54-7.17-30.81-10.77C284.22,496.61,283.7,496.04,283.03,495.32z"/>
	<path class="st8" d="M340.92,525.6c0.28-5.01,4.86-3.6,7.38-5.61c0.74,0.21,1.17,0.45,1.85,0.73c1.02,2.83,1.69,5.65,2.6,8.39
		c2.88,8.7,1.07,13.89-8.52,13c-0.85-0.08-1.72-0.01-2.97-0.02C342.72,536.72,342.88,531.34,340.92,525.6z"/>
	<path class="st25" d="M285.97,569.64c-1.74,0.58-3.83,1.14-6.28,1.67C281.42,570.73,283.52,570.17,285.97,569.64z"/>
	<path class="st25" d="M296.39,567.86c-1.46,0.58-3.26,1.14-5.44,1.68C292.4,568.96,294.23,568.4,296.39,567.86z"/>
	<path class="st25" d="M316.28,562.43c-0.91,0.6-2.15,1.2-3.73,1.78C313.45,563.61,314.7,563.02,316.28,562.43z"/>
	<path class="st25" d="M331.99,552.9c-0.42,0.76-1.09,1.62-2.07,2.48C330.31,554.59,331.02,553.8,331.99,552.9z"/>
	<path class="st25" d="M307.68,565.13c-0.46,0.45-1.21,0.89-2.13,1.11C306.05,565.72,306.72,565.43,307.68,565.13z"/>
	<path class="st25" d="M303.32,566.1c-0.68,0.57-1.66,1.12-2.95,1.65C301.05,567.18,302.04,566.63,303.32,566.1z"/>
	<path class="st11" d="M280.2,493.94c0.77-0.01,1.66,0.26,2.66,0.81C282.09,494.76,281.2,494.49,280.2,493.94z"/>
	<path class="st25" d="M318.95,560.78c-0.4,0.56-1.07,1.12-2.05,1.67C317.29,561.89,317.98,561.34,318.95,560.78z"/>
	<path class="st25" d="M325.88,557.26c-0.16,0.52-0.59,1.06-1.31,1.6C324.72,558.34,325.17,557.81,325.88,557.26z"/>
	<path class="st25" d="M322.42,559.06c-0.16,0.52-0.6,1.05-1.32,1.58C321.26,560.11,321.7,559.59,322.42,559.06z"/>
	<path class="st8" d="M340.65,542.24c0.07,0.34-0.07,0.83-0.41,1.47C340.17,543.37,340.3,542.88,340.65,542.24z"/>
	<path class="st22" d="M187.77,547.66c0.34-0.09,0.82,0.05,1.45,0.39C188.88,548.13,188.4,548,187.77,547.66z"/>
	<path class="st25" d="M327.69,556.38c0.02,0.14-0.15,0.37-0.53,0.68C327.06,556.86,327.24,556.63,327.69,556.38z"/>
	<path class="st19" d="M232.61,478.99c-0.14,0.03-0.38-0.14-0.7-0.51C232.05,478.45,232.28,478.62,232.61,478.99z"/>
	<path class="st25" d="M328.53,555.57c0.09,0.19-0.06,0.4-0.46,0.63C327.96,556,328.11,555.78,328.53,555.57z"/>
	<path class="st22" d="M187.02,547.37c0.03-0.1,0.27-0.16,0.56-0.07C187.64,547.45,187.22,547.42,187.02,547.37z"/>
	<path class="st10" d="M196.46,324.2c-2.22-0.43-4.58-0.5-6.63-1.36c-14.95-6.24-29.85-4.71-44.37,0.99
		c-13.91,5.46-24.61,15.02-31.17,29.05c-4.26,9.11-3.45,18.15-0.11,27.61c-4.11,2.83-8.24,5.21-13.59,3.03
		c-5.76-4.65-8.2-10.68-8.21-18.23c1.19-7.06,2.54-13.7,6.72-19.62c5.86-6.27,11.6-12.27,17.47-18.53c0.27-0.3,0.42-0.33,0.98-0.45
		c0.67-0.24,0.82-0.47,0.88-0.76c0,0-0.03-0.01,0.19-0.09c0.41-0.3,0.61-0.53,0.81-0.76c0,0,0.37-0.02,0.75-0.12
		c0.68-0.23,0.84-0.45,0.89-0.77c0,0-0.06-0.04,0.18-0.09c0.43-0.29,0.63-0.54,0.82-0.78c6.45-2.64,12.88-5.36,19.37-7.89
		c2.52-0.98,5.2-1.52,8.06-2.48c0.24-0.23,0.59-0.22,1.15-0.24c8.08-0.07,15.61-0.12,23.13-0.16c0.35,0.06,0.71,0.11,1.55,0.4
		c2.12,0.63,3.75,1.03,5.62,1.48c0.57,0.07,0.9,0.08,1.41,0.31c0.71,0.36,1.24,0.5,1.8,0.61c0.03-0.03-0.05,0,0.02,0.21
		c0.28,0.44,0.54,0.55,1.07,0.55c0.36,0.05,0.51,0.05,0.81,0.27c0.63,0.37,1.11,0.53,1.59,0.68c0-0.01-0.02,0,0.12,0.23
		c0.63,0.34,1.13,0.47,1.79,0.81c1.19,0.69,2.21,1.16,3.32,1.83c0.34,0.36,0.58,0.52,0.82,0.67c0-0.01-0.02,0,0.07,0.2
		c0.28,0.43,0.51,0.6,0.8,0.68c0,0-0.01,0,0.1,0.26C195.33,322.74,195.89,323.47,196.46,324.2z"/>
	<path class="st32" d="M203.12,274.57c-0.56-2.15-1.19-4.29-1.68-6.46c-1.84-8.24-1.72-16.49,0.42-25.11
		c8.56-3.01,16.19-0.37,23.84,2.66c-0.26,3.67-0.53,6.95-0.84,10.63c-0.01,2.21,0.02,4.03,0.04,6.05c-0.01,0.2,0.05,0.61,0.03,0.97
		c0.29,2.8,0.6,5.24,0.89,8.01c0,0.98,0.03,1.63-0.28,2.28c-1.42-0.77-2.72-1.37-3.56-2.36c-3.96-4.69-12.42-3.71-15.44,1.69
		C206.04,273.86,204.29,274.05,203.12,274.57z"/>
	<path class="st14" d="M182.18,314.52c-0.33-0.01-0.66-0.03-1.36-0.31c-0.86-0.71-1.34-1.15-1.83-1.59
		c6.28-0.47,12.56-0.97,18.85-1.36c1.25-0.08,2.53,0.47,3.78,0.41c4.05-0.19,8.11-0.45,12.15-0.86c1.32-0.13,2.59-0.79,4.34-1.46
		c1.94,0.93,3.43,2.13,4.98,3.62c2.68,3.59,5.29,6.88,7.88,10.54c-1.34,1.05-2.59,2.04-3.98,2.34c-3.99,0.84-8.39,0.61-11.95,2.3
		c-3.48,1.66-6.39,3.45-10.13,1.37c0,0,0.05-0.05-0.03-0.19c-0.32-0.05-0.56,0.05-0.8,0.14c0,0-0.42-0.04-0.63-0.39
		c-1.78-4.42-4.79-6.69-8.88-7.6c0,0,0.01,0-0.09-0.2c-0.27-0.44-0.5-0.61-0.8-0.68c0,0,0.02-0.01-0.07-0.2
		c-0.34-0.35-0.59-0.51-0.83-0.67c-1.02-0.47-2.04-0.93-3.38-1.83c-0.81-0.57-1.29-0.7-1.77-0.83c0,0,0.02-0.02-0.12-0.23
		c-0.63-0.36-1.11-0.51-1.6-0.66c-0.15-0.01-0.29-0.02-0.76-0.24c-0.51-0.43-0.75-0.55-1.03-0.59c0,0,0.08-0.03-0.1-0.25
		C183.29,314.75,182.74,314.64,182.18,314.52z"/>
	<path class="st33" d="M203.14,274.94c1.16-0.89,2.9-1.08,3.41-1.99c3.02-5.41,11.47-6.39,15.44-1.69c0.84,1,2.14,1.59,3.79,2.57
		c1.53,3.03,2.5,5.85,3.47,8.96c0.29,0.98,0.57,1.68,0.93,2.58c0.3,0.4,0.52,0.59,0.74,1.11c0.58,2.14,1.17,3.95,1.36,5.76
		c-7.63,0.59-14.86,1.18-22.09,1.77c0,0-0.05-0.4-0.07-0.88c-0.54-0.91-1.06-1.34-1.58-1.77
		C206.74,286.01,204.95,280.66,203.14,274.94z"/>
	<path class="st9" d="M225.69,245.29c-7.63-2.65-15.27-5.29-23.8-2.66c1.36-5.97,3.06-11.96,4.81-18.27
		c8.19-1.4,16.32-2.55,24.35,0.37c0.77,0.28,1.69,0.12,2.82,0.46c-0.77,2.46-1.81,4.62-3.01,7.05
		C229.03,236.78,227.36,241.04,225.69,245.29z"/>
	<path class="st34" d="M210.21,294.33c7.2-0.91,14.44-1.5,22.22-1.87c1.28,1.01,2.02,1.8,2.8,2.89c2.4,4.16,4.76,8.02,6.8,12.01
		c-6.54,1.86-12.77,3.58-19,5.3c-1.49-1.19-2.98-2.39-4.75-3.63C215.4,304.21,212.82,299.43,210.21,294.33z"/>
	<path class="st14" d="M173.61,312.25c-7.35,0.34-14.87,0.39-22.78,0.42c0.27-0.61,0.92-1.71,1.6-1.72c6.4-0.12,12.8-0.09,19.2,0
		C172.23,310.95,172.83,311.6,173.61,312.25z"/>
	<path class="st13" d="M178.64,312.62c0.84,0.44,1.33,0.88,1.95,1.53c-1.5-0.19-3.13-0.59-4.98-1.22
		C176.35,312.67,177.31,312.65,178.64,312.62z"/>
	<path class="st34" d="M208.55,291.64c0.51,0.15,1.02,0.57,1.56,1.29C209.61,292.79,209.08,292.36,208.55,291.64z"/>
	<path class="st13" d="M530.92,321.48c2.61,6.58,4.82,13.16,6.76,20.07c-3.38,0.06-6.51-0.52-9.61-0.39
		c-8.96,0.37-17.91,1.03-26.87,1.57c-0.23-0.48-0.46-0.96-0.95-1.79c-0.4-0.57-0.59-0.72-0.82-0.82c-5.33-7.87-12.3-13.8-20.8-18.37
		c10.64-0.22,21.45-0.18,32.26-0.18C517.44,321.57,523.98,321.51,530.92,321.48z"/>
	<path class="st35" d="M569.1,416.18c9.81,7.23,17.2,16.03,21.08,27.62c0.73,2.17,1.49,4.32,2.39,6.76
		c-0.3,8.61-0.03,17.07-1.39,25.24c-1.83,11.02-7.73,20.42-14.2,29.26c-8.13,11.1-18,20.47-28.93,28.7
		c0.07-3.82-4.26-7.21-0.72-10.88c1.28,0.39,2.38,0.73,3.48,1.07c0.43-2.23,0.93-4.07,1.13-5.94c0.39-3.83,0.31-7.51-4.36-8.73
		c1.27-6.23,2.98-12.41,3.69-18.7c0.57-5.16-0.05-10.45-0.12-16.47c0.31-4.36,2.03-8.81,0.56-11.33c-2.75-4.72-4.68-7.66-0.98-13.42
		c2.45-3.82,1.26-10.26,1.15-15.52c-0.03-1.49-2.11-2.88-3.12-4.4c-0.99-1.48-2.62-3.13-2.53-4.62c0.16-2.85,1.03-5.78,2.19-8.41
		c1.14-2.59,3-4.85,4.55-7.26C558.24,411.45,563.54,413.75,569.1,416.18z"/>
	<path class="st21" d="M552.73,408.91c-1.33,2.64-3.19,4.9-4.33,7.5c-1.16,2.63-2.02,5.56-2.19,8.41c-0.08,1.49,1.55,3.13,2.53,4.62
		c1.01,1.52,3.09,2.91,3.12,4.4c0.12,5.26,1.3,11.7-1.15,15.52c-3.69,5.76-1.76,8.7,0.98,13.42c1.46,2.51-0.25,6.96-0.57,10.93
		c-0.85-2.07-1.68-4.52-2.47-6.98c-4.04-12.5-11.46-22.01-23.15-28.07c1.14-2.73,2.94-5.03,3.01-7.38
		c0.11-3.73-1.16-7.48-1.44-11.25c-0.23-3.11-1.21-4.27-4.42-2.27c0-3.54,0-6.49,0-9.44c1.72-0.59,3.45-1.7,5.17-1.68
		C536.09,406.73,544.5,405.37,552.73,408.91z"/>
	<path class="st30" d="M522.31,408.32c0.34,2.95,0.34,5.9,0.34,9.44c3.21-2,4.19-0.83,4.42,2.27c0.28,3.77,1.55,7.52,1.44,11.25
		c-0.07,2.35-1.86,4.65-3.18,7.12c-2.32-0.42-4.37-1.51-6.37-1.44c-4.02,0.14-8.03,0.92-12.37,1.47c-1.69-0.6-3.51-0.89-4.33-1.97
		c-2.06-2.72-4.49-5.6-5.2-8.79c-0.53-2.39,1.37-5.35,2.2-8.4c0-0.34,0.01-0.33,0.2-0.43c0.43-0.27,0.59-0.51,0.67-0.8
		c0,0,0.01,0.01,0.2-0.09c0.43-0.27,0.59-0.5,0.68-0.78c0.66-0.58,1.32-1.16,2.25-1.77c5.35-2.09,10.42-4.18,15.52-6.21
		C519.8,408.8,520.9,408.61,522.31,408.32z"/>
	<path class="st21" d="M547.34,509.45c4.9,1.04,4.98,4.72,4.59,8.55c-0.19,1.87-0.69,3.71-1.13,5.94c-1.1-0.34-2.2-0.68-3.48-1.07
		c-3.54,3.67,0.79,7.06,0.43,10.94c-5.12,4.42-10.12,8.65-15.41,12.46c-3.7,2.66-7.81,4.73-12.01,6.83
		c-0.73-7.02-4.04-11.78-9.03-12.79c10.19-3.63,19.44-9.1,27.02-16.84C542.05,519.66,544.23,514.29,547.34,509.45z"/>
	<path class="st30" d="M510.98,540.34c5.32,0.98,8.63,5.73,9.08,12.86c-7.28,3.6-14.57,6.85-22.18,10.14
		c-0.62-2.25-1.03-4.55-1.17-6.87c-0.13-2.13,0.13-3.91-2.4-5.31c-1.81-1.01-2.67-3.79-3.84-6.04
		C497.28,543.38,503.96,541.88,510.98,540.34z"/>
	<path class="st36" d="M402,441.12c-0.47,5.36-0.95,10.73-1.47,16.47c-3.91,4.93-7.79,4.5-11.77,0.67
		c-3.96-3.82-9.47-3.16-14.65-2.73c-2.07,0.17-4.2-0.35-6.38-1.27c-0.1-2.2-0.11-3.68-0.09-5.49c0.02-1.01,0.02-1.68,0.05-2.72
		c0.25-2.79,0.47-5.21,1.05-7.6c3.47,0.13,6.58,0.11,9.67,0.34c1.86,0.14,4.4,0.02,5.4,1.16c3.63,4.12,7.76,4.54,12.5,3.02
		C398.21,442.37,400.1,441.74,402,441.12z"/>
	<path class="st19" d="M367.64,446.41c0.01,0.67,0.02,1.34-0.24,2.56c-0.43,2.73-0.59,4.93-0.76,7.12c-0.22,1-0.45,2-0.86,3.39
		c-0.38,0.66-0.32,0.9-0.01,1.09c-4.37,13.84-12.31,25.18-23.14,34.45c-2.27,1.95-4.82,3.56-7.54,5.04
		c-0.31-0.69-0.32-1.11-0.33-1.52c2.92-2.73,5.99-5.31,8.74-8.21c8.37-8.82,13.97-19.14,15.74-31.46c0.35-2.46,1.03-4.86,1.9-7.73
		C362.69,448,363.97,445.4,367.64,446.41z"/>
	<path class="st37" d="M366.74,455.84c0.07-1.94,0.23-4.14,0.63-6.54c0.25,1.28,0.26,2.76,0.29,4.61
		C367.39,454.72,367.11,455.15,366.74,455.84z"/>
	<path class="st11" d="M334.48,498.62c0.31,0.33,0.32,0.75,0.32,1.47c-1.26,0.94-2.51,1.57-4.08,2.15
		C331.67,501.01,332.92,499.85,334.48,498.62z"/>
	<path class="st26" d="M394.21,531.52c0.23,1.02,0.13,2.01-0.09,4.24c-1.08-1.86-1.6-2.75-2.15-3.94
		C392.59,531.5,393.24,531.49,394.21,531.52z"/>
	<path class="st26" d="M397.77,533.03c-0.57,0.08-1.3-0.08-2.2-0.48C396.14,532.47,396.87,532.63,397.77,533.03z"/>
	<path class="st37" d="M365.83,460.36c-0.36,0.02-0.42-0.22-0.1-0.57C365.86,459.71,365.89,460.14,365.83,460.36z"/>
	<path class="st31" d="M258.56,202.62c3.12-1.83,6.24-3.67,9.55-5.76c4.54-1.51,8.9-2.73,13.24-4.05
		c14.89-4.51,29.53-3.39,44.01,1.9c0.26,0.1,0.57,0.07,1.18,0.12c5.29,2.99,10.29,5.92,15.21,8.97c1.2,0.74,2.18,1.86,3.12,3.27
		c-3.77,1.54-7.4,2.63-11.33,3.65c-1.51-0.82-2.71-1.59-3.93-2.33c-11.3-6.85-23.36-10.32-36.37-6.84
		c-7.06,1.89-13.82,4.97-20.87,7.21c-2.99-1.04-5.92-1.5-8.62-2.58C261.85,205.43,260.28,203.84,258.56,202.62z"/>
	<path class="st23" d="M135.34,402.07c0.64,0.74,0.94,1.43,0.97,2.59c-3.08,11.36-7.39,18.52-20.19,20.14
		c-6.96,0.88-13.33-2.25-19.72-4.82c-4.59-1.85-9.32-3.63-14.16-4.46c-8.8-1.52-15.95,3.02-23.17,7.81c-2.33-0.6-4.38-1.75-6.34-1.6
		c-6.51,0.49-12.98,1.52-19.48,2.19c-2.73,0.28-6.38,2.07-6.62-3.21c0.01-0.39,0.01-0.77,0.05-1.45c3.58-6.09,7.14-11.9,10.92-17.89
		c4.69,0.13,9.16,0.43,13.62,0.76c4.36,0.32,8.77,1.19,12.85-1.39c0.34-0.21,0.83-0.28,1.24-0.25c13.39,0.83,26.77,2.05,40.18,2.39
		c8.29,0.21,16.6-0.97,24.91-1.42C131.92,401.37,133.47,401.82,135.34,402.07z"/>
	<path class="st17" d="M501.28,343.02c8.88-0.83,17.83-1.49,26.8-1.86c3.1-0.13,6.23,0.45,9.73,0.72c0.7,2.41,1,4.82,1.34,7.61
		c0,4.82-0.03,9.27-0.41,14.08c-9.67-2.62-19.01-2.75-28.3-0.09c-0.75-0.93-1.57-1.96-2.4-2.99
		C505.8,354.75,503.58,349.03,501.28,343.02z"/>
	<path class="st9" d="M517.69,401.96c-1.94-1.04-3.5-2.51-5.33-3.28c-2.23-0.93-4.86-0.93-6.99-2.01c-1.36-0.69-2.12-2.62-3.42-4.21
		c1.82-5.56,3.9-10.9,6.38-16.53c7.01,0.8,13.6,2.03,20.24,2.9c3.06,0.4,3.84,2.03,3.63,4.76
		C527.46,389.67,522.71,395.76,517.69,401.96z"/>
	<path class="st16" d="M532.46,383.45c-0.03-2.58-0.82-4.22-3.88-4.62c-6.64-0.88-13.23-2.11-20.19-3.24
		c-0.38-4.8-0.41-9.54-0.41-14.71c0.86,0.62,1.69,1.65,2.44,2.58c9.28-2.67,18.63-2.53,28.27,0.5c-0.81,5.1-1.95,10.15-3.1,15.54
		C534.64,381.01,533.67,382.16,532.46,383.45z"/>
	<path class="st17" d="M499.46,340.31c0.2-0.1,0.39,0.05,0.6,0.44C499.86,340.9,499.64,340.76,499.46,340.31z"/>
	<path class="st0" d="M59.4,423.36c6.9-4.83,14.04-9.37,22.84-7.85c4.83,0.83,9.57,2.62,14.16,4.46c6.39,2.57,12.76,5.7,19.72,4.82
		c12.8-1.62,17.12-8.78,20.19-19.85c4.73,18.4-12.52,36.56-30.76,32.34c-4.27-0.99-8.43-2.6-12.56-4.14
		c-14.94-5.59-25.96,1.53-33.09,12.86c-10.46,16.62-10.79,43.57,2.58,59.41c5.36,6.34,12.27,10.4,19.69,14.23
		c-9.5-1.06-17.43-5.88-24.44-12.55c-1.57-1.49-3.06-3.06-4.85-4.72c-1.53-1.51-2.8-2.89-4.35-4.76
		c-2.92-7.05-5.56-13.63-8.17-20.57c0.09-7.43,0.15-14.48,0.42-21.79c1.8-5.09,3.39-9.93,5.25-14.9
		C50.69,434.6,55.04,428.98,59.4,423.36z"/>
	<path class="st13" d="M119.2,325.14c0.03,0.16-0.17,0.4-0.58,0.71C118.6,325.7,118.79,325.45,119.2,325.14z"/>
	<path class="st13" d="M120.87,324.26c0.15,0.25-0.01,0.48-0.51,0.65C120.25,324.68,120.42,324.47,120.87,324.26z"/>
	<path class="st13" d="M121.84,323.39c0.04,0.18-0.16,0.43-0.57,0.75C121.23,323.96,121.42,323.7,121.84,323.39z"/>
	<path class="st13" d="M118.25,326c0.13,0.22-0.03,0.44-0.48,0.63C117.66,326.41,117.83,326.21,118.25,326z"/>
	<path class="st38" d="M303.65,334.76c9.25,3.99,18.54,7.88,27.72,12.05c2.94,1.33,5.57,3.4,8.25,5.58
		c-0.78,0.91-1.48,1.78-2.17,1.77c-4.44-0.04-8.88-0.32-13.32-0.43c-6.68-0.18-13.36-0.34-20.04-0.41c-5-0.05-9.89,3.09-15.07,0.22
		c-1.06-0.59-2.99,0.46-4.83,0.72c-8.15-3.57-15.99-7.1-23.65-10.87c6.62-3.82,12.37-8.52,20.91-6.3c4.37,1.14,9.4-1.32,14.43,0.06
		C298.09,337.77,301.03,335.65,303.65,334.76z"/>
	<path class="st39" d="M360.9,367.46c6.87,6.32,13.74,12.64,20.32,19.31c-2.73,0.91-5.17,1.95-7.62,1.95
		c-5.63,0.01-11.25-0.51-16.88-0.77c-0.99-0.05-2.01,0.03-2.99,0.2c-2.89,0.49-5.78,1.04-8.92,1.44
		c-5.52-4.31-10.71-8.6-16.08-12.64c-3.62-2.72-7.5-5.07-11.25-7.93c0.22-0.88,0.41-1.86,0.62-1.86c3.77-0.12,7.66,0.5,10.64-2.91
		c0.28-0.32,1.81,0.61,2.79,0.8c2.93,0.56,5.87,1.47,8.8,1.45c3.71-0.03,7.2-0.94,11.06,0.7
		C354.13,368.37,357.71,367.45,360.9,367.46z"/>
	<path class="st40" d="M307.3,329.78c6.81-4.32,13.81-8.4,21.39-12.64c1.96-0.91,3.36-1.62,4.7-2.45c3.03-1.87,6.02-3.81,9.32-5.58
		c2.94,1.19,5.93,1.76,8.16,3.39c5.82,4.26,7.03,4.5,13.19,0.91c1.04-0.61,2.45-0.53,3.7-0.77c-6.92,5.43-13.52,11.36-20.84,16.13
		c-5.75,3.75-12.39,6.08-18.83,9.27C321.08,335.53,314.28,332.77,307.3,329.78z"/>
	<path class="st41" d="M345.07,389.73c2.89-0.53,5.77-1.09,8.66-1.57c0.98-0.16,2-0.24,2.99-0.2c5.63,0.26,11.26,0.77,16.88,0.77
		c2.44,0,4.89-1.04,7.67-1.66c4.37,6.21,8.39,12.46,12.34,19.4c-2.47,0.98-4.86,1.43-7.26,1.54c-3.21,0.15-6.48-0.29-9.65,0.12
		c-5.31,0.7-10.56,1.87-15.98,2.57c-3.56-5.12-6.97-9.96-10.51-15.07C348.43,393.49,346.75,391.61,345.07,389.73z"/>
	<path class="st42" d="M360.82,367.17c-3.12,0.28-6.69,1.19-9.42,0.03c-3.85-1.64-7.35-0.73-11.06-0.7
		c-2.93,0.02-5.87-0.89-8.8-1.45c-0.98-0.19-2.51-1.12-2.79-0.8c-2.98,3.42-6.87,2.79-10.64,2.91c-0.22,0.01-0.41,0.98-0.93,1.82
		c-5.89-2.32-11.44-4.95-17.2-7.61c-0.19-0.03-0.59-0.05-0.69-0.24c-0.29-0.42-0.53-0.55-1.14-0.65c-4.76-2.1-9.21-4.15-13.65-6.2
		c1.53-0.3,3.46-1.35,4.52-0.76c5.17,2.87,10.07-0.27,15.07-0.22c6.68,0.06,13.36,0.23,20.04,0.41c4.44,0.12,8.88,0.39,13.32,0.43
		c0.69,0.01,1.39-0.86,2.36-1.53C346.98,357.24,353.86,362.06,360.82,367.17z"/>
	<path class="st43" d="M303.44,334.52c-2.4,1.13-5.34,3.25-7.56,2.64c-5.02-1.38-10.06,1.08-14.43-0.06
		c-8.53-2.22-14.29,2.48-21.16,6.18c-1.12-0.09-1.82-0.31-2.62-0.72c-0.29-0.43-0.53-0.59-0.94-0.9c-0.6-0.37-1.07-0.51-1.74-0.68
		c-0.2-0.02-0.61-0.03-0.71-0.22c-0.29-0.43-0.53-0.59-0.82-0.67c0,0,0.01,0-0.08-0.19c-0.26-0.44-0.49-0.58-1.09-0.68
		c-4.44-3.28-8.58-6.51-12.45-9.87c4.2-2.05,7.24-5.69,12.59-4.56c3.03,0.64,6.53-1.06,10.15-1.68c4.65,1.27,8.96,2.51,13.27,3.75
		c6.4,1.74,12.79,3.49,19.19,5.23C297.76,332.82,300.49,333.54,303.44,334.52z"/>
	<path class="st44" d="M360.88,410.98c5.28-0.97,10.53-2.15,15.84-2.85c3.17-0.42,6.43,0.03,9.65-0.12c2.4-0.11,4.79-0.56,7.26-1.22
		c0.77,0.79,1.46,1.93,2.36,3.27c1.12,3.73,2.02,7.27,2.54,11.17c-5.9,0.71-12.04-0.37-16.76,1.79c-5.1,2.34-10.23,1.49-15.33,2.8
		c-1.44-3.64-2.68-7.03-3.94-10.73C361.94,413.53,361.41,412.26,360.88,410.98z"/>
	<path class="st21" d="M276.25,326.83c-4.72-1.22-9.03-2.47-13.76-4.02c-1.67-1.24-2.97-2.09-4.15-3.1
		c-3.43-2.91-6.81-5.88-9.8-8.84c3.79-0.33,7.24-0.38,10.54-1.12c1.19-0.27,2.03-2.19,3.03-3.36c8.45,5.6,16.89,11.2,25.64,16.87
		c0.41,3.42-2.27,3.17-4.21,3.44C281.28,327.02,278.95,326.8,276.25,326.83z"/>
	<path class="st45" d="M350.12,228.58c-5.33-5.75-10.66-11.51-16.14-17.53c3.48-1.35,7.12-2.43,11.02-3.7
		c1.18,0.39,2.1,0.97,3.3,1.6c4.32,5.44,8.35,10.84,12.08,16.55C356.76,226.73,353.44,227.65,350.12,228.58z"/>
	<path class="st32" d="M402.77,243.52c-0.06,9.86-1.67,19.47-5.97,28.9c-6.49-1.73-12.62-3.8-18.27-5.71
		c-3.38,4.78-8.66,3.82-12.39,5.71c2.7-9.46,3.39-18.69,1.52-28.04c0.05,0.02,0.15,0.06,0.15,0.06c2.51-0.31,5.01-0.85,7.52-0.89
		C384.34,243.45,393.35,243.52,402.77,243.52z"/>
	<path class="st46" d="M350.19,228.9c3.25-1.24,6.57-2.17,10.21-3.09c0.56,0.17,0.79,0.34,1.15,0.69
		c2.14,5.87,4.15,11.55,6.21,17.59c0.04,0.35-0.06,0.31-0.44,0.26c-3.83-0.02-7.28,0.01-10.73,0.04
		C354.48,239.33,352.37,234.28,350.19,228.9z"/>
	<path class="st47" d="M40.58,455.5c-0.05,7.05-0.11,14.11-0.55,21.53c-4.71,0.37-9.03,0.36-13.35,0.36c0,0-0.01-0.43-0.03-0.64
		c-4.4-7.93-5.79-16.51-6.58-25.49c1.92,0.35,3.5,1.5,5.14,1.59c3.71,0.2,7.47-0.4,11.16-0.09
		C37.84,452.88,39.18,454.54,40.58,455.5z"/>
	<path class="st37" d="M26.72,477.69c4.29-0.3,8.61-0.3,13.28-0.29c2.99,6.58,5.63,13.15,8.32,20.04c-2.03-0.44-4.68-0.62-6.08-2.07
		C36.86,489.8,31.87,483.82,26.72,477.69z"/>
	<path class="st34" d="M368.03,312.64c-1.51,0.24-2.93,0.17-3.97,0.78c-6.16,3.59-7.37,3.36-13.19-0.91
		c-2.24-1.64-5.22-2.21-8.08-3.69c2.43-3.72,5.08-7.01,7.97-10.46c2.9-3.07,5.55-6,8.39-8.65c3.04,1.02,5.86,2.15,8.76,2.45
		c5.7,0.59,11.44,0.73,17.16,1.06c-4.83,5.84-9.65,11.68-14.48,17.51c-0.36,0.43-0.72,0.85-1.14,1.58
		C369.03,312.62,368.67,312.63,368.03,312.64z"/>
	<path class="st19" d="M500.81,417.27c0.11,0.2-0.06,0.43-0.49,0.69C500.2,417.75,500.37,417.52,500.81,417.27z"/>
	<path class="st19" d="M499.94,418.14c0.12,0.2-0.04,0.44-0.47,0.71C499.35,418.65,499.51,418.41,499.94,418.14z"/>
	<path class="st33" d="M385.37,293.15c-6.01-0.25-11.75-0.39-17.45-0.98c-2.9-0.3-5.72-1.42-8.74-2.76
		c1.31-3.87,2.79-7.15,4.49-10.63c0.95-2.14,1.67-4.08,2.39-6.02c3.81-2.22,9.09-1.26,12.47-6.04c5.65,1.9,11.77,3.97,18.24,6.04
		C393.29,279.53,389.47,286.3,385.37,293.15z"/>
	<path class="st45" d="M272.37,208.77c-8.46,6.46-15.18,14.31-20.77,23.95c-7.29-0.14-13.93-0.44-20.57-0.74
		c1.04-2.16,2.08-4.33,3.2-6.78c4.71-5.4,9.35-10.5,14.05-15.9c3.28-2.37,6.49-4.44,9.99-6.6c2.01,1.14,3.59,2.73,5.48,3.49
		C266.45,207.27,269.38,207.74,272.37,208.77z"/>
	<path class="st29" d="M40.8,455.24c-1.62-0.71-2.96-2.36-4.42-2.49c-3.69-0.31-7.45,0.29-11.16,0.09
		c-1.64-0.09-3.22-1.24-5.11-1.96c-0.29-0.06-0.34-0.49-0.35-0.71c0.67-5.08,1.35-9.93,2.52-14.84c1.27,0.93,2.13,2.81,2.81,2.74
		c4.72-0.44,9.39-1.72,14.1-1.84c2.53-0.06,6.11,0.07,6.59,4.23C44.19,445.31,42.6,450.15,40.8,455.24z"/>
	<path class="st28" d="M46.05,440.34c-0.76-4.03-4.34-4.17-6.87-4.1c-4.71,0.12-9.38,1.39-14.1,1.84c-0.69,0.06-1.55-1.81-2.58-3
		c0.99-4.88,2.24-9.55,3.8-14.31c0.57,5.2,4.21,3.41,6.94,3.13c6.5-0.67,12.97-1.7,19.48-2.19c1.96-0.15,4.01,1,6.34,1.6
		C55.04,428.98,50.69,434.6,46.05,440.34z"/>
	<path class="st48" d="M366.64,426.07c4.9-1.54,10.03-0.7,15.13-3.04c4.72-2.17,10.86-1.08,16.76-1.43
		c1.36,5.43,2.34,10.87,3.53,16.57c0.18,0.95,0.15,1.62,0.03,2.62c-1.98,0.94-3.88,1.57-5.78,2.18c-4.74,1.52-8.87,1.1-12.5-3.02
		c-1-1.14-3.55-1.02-5.4-1.16c-3.09-0.23-6.2-0.21-9.79-0.67C367.63,433.86,367.13,429.96,366.64,426.07z"/>
	<path class="st6" d="M239.55,329.47c4.14,3.23,8.28,6.46,12.82,9.92c0.58,0.46,0.8,0.62,1.08,0.69c0,0-0.01,0,0.09,0.2
		c0.34,0.35,0.59,0.51,0.83,0.67c0,0,0.4,0.01,0.75,0.24c0.81,0.38,1.27,0.54,1.73,0.69c0.28,0.09,0.52,0.25,0.68,0.97
		c-1.13,1.12-2.23,2.28-3.34,2.29c-3.75,0.03-7.5-0.34-11.24-0.57c-5.33-3-10.61-6.1-16.02-8.95c-1.47-0.78-3.36-1.26-4.98-1.1
		c-6.2,0.6-11.86-0.62-16.98-4.69c3.69,1.77,6.59-0.03,10.08-1.68c3.56-1.69,7.96-1.46,11.95-2.3c1.39-0.29,2.63-1.29,4.27-2.28
		C234.24,325.33,236.9,327.4,239.55,329.47z"/>
	<path class="st17" d="M243.11,344.84c3.59-0.05,7.34,0.33,11.08,0.3c1.11-0.01,2.21-1.17,3.45-2.1c0.82-0.07,1.52,0.15,2.47,0.48
		c8.09,3.64,15.92,7.17,24.08,10.73c4.76,2.09,9.21,4.14,14.07,6.42c0.61,0.46,0.85,0.6,1.14,0.65c0,0,0.39,0.02,0.58,0.39
		c-2.69,1.6-5.56,2.83-8.77,4.06c-4.74-1.5-9.14-2.99-13.53-4.49c-7.87-3.5-15.74-7-23.93-10.54
		C250.04,348.84,246.65,346.98,243.11,344.84z"/>
	<path class="st6" d="M194.67,321.75c3.99,0.66,7,2.92,8.57,7.32c-2.11-1.29-4.23-2.9-6.57-4.69
		C195.89,323.47,195.33,322.74,194.67,321.75z"/>
	<path class="st6" d="M204.29,329.51c0.03-0.12,0.27-0.22,0.57-0.15C204.91,329.52,204.5,329.54,204.29,329.51z"/>
	<path class="st19" d="M200.59,481.21c0.12-0.01,0.29,0.19,0.35,0.49C200.83,481.81,200.64,481.42,200.59,481.21z"/>
	<path class="st16" d="M291.55,365.78c2.87-1.23,5.74-2.46,8.62-4.03c5.57,2.29,11.13,4.92,16.99,7.59
		c4.07,2.56,7.96,4.91,11.57,7.62c5.37,4.03,10.56,8.33,16.08,12.64c1.93,2.01,3.61,3.9,5.06,6.05c-2.89,0.87-5.56,1.46-8.23,2.06
		c-11.91-11.99-25.89-20.75-41.14-27.48c-2.45-1.08-5.04-1.81-7.98-2.96C291.93,366.59,291.74,366.18,291.55,365.78z"/>
	<path class="st45" d="M248.56,403.86c-2.87-2.68-5.37-5.66-8.14-8.34c-1.62-1.57-3.68-2.69-5.84-4.09
		c4.7-4.46,9.71-8.83,15.37-13.23c2.42,0.68,4.32,1.17,5.94,2.13c2.56,1.53,4.94,3.38,7.39,5.1
		C258.46,391.52,253.64,397.61,248.56,403.86z"/>
	<path class="st46" d="M263.56,385.36c-2.73-1.64-5.1-3.49-7.66-5.02c-1.62-0.97-3.52-1.46-5.64-2.18
		c6.08-4.14,12.51-8.27,19.52-12.27c3.89,2.42,7.2,4.71,10.51,7.01C274.8,377.02,269.32,381.15,263.56,385.36z"/>
	<path class="st37" d="M366.44,425.83c0.7,4.13,1.2,8.03,1.81,12.25c-0.1,2.75-0.31,5.18-0.56,7.97c-3.72-0.65-4.99,1.95-6.49,4.73
		c0.23-12.13-2.47-23.65-7.02-35.09c2.98-0.34,5.66-0.32,8.34-0.29C363.76,418.8,365,422.19,366.44,425.83z"/>
	<path class="st47" d="M362.5,415.1c-2.66,0.27-5.34,0.25-8.37,0.27c-4.33-5.67-8.32-11.37-12.39-17.37
		c2.59-0.89,5.25-1.48,8.27-2.09c3.76,4.83,7.18,9.68,10.73,14.8C361.41,412.26,361.94,413.53,362.5,415.1z"/>
	<path class="st49" d="M280.6,372.87c-3.62-2.27-6.93-4.57-10.51-7.01c2.16-1.52,4.6-2.9,7.3-4.43c4.67,1.35,9.06,2.84,13.8,4.34
		c0.54,0.41,0.73,0.81,0.98,1.43C288.47,369.23,284.69,371.04,280.6,372.87z"/>
	<path class="st45" d="M234.08,391.4c-0.1,0.3-0.45,0.62-1.04,0.98C233.14,392.09,233.48,391.76,234.08,391.4z"/>
	<path class="st13" d="M187.77,317.29c0.34-0.09,0.83,0.04,1.46,0.38C188.9,317.76,188.4,317.64,187.77,317.29z"/>
	<path class="st13" d="M186.06,316.39c0.33-0.06,0.82,0.09,1.44,0.47C187.17,316.92,186.69,316.76,186.06,316.39z"/>
	<path class="st13" d="M182.37,314.73c0.37-0.1,0.92,0.02,1.62,0.39C183.61,315.24,183.09,315.09,182.37,314.73z"/>
	<path class="st6" d="M193.78,320.8c0.2-0.12,0.43,0.04,0.7,0.49C194.3,321.4,194.06,321.24,193.78,320.8z"/>
	<path class="st6" d="M192.89,319.94c0.14-0.04,0.39,0.12,0.73,0.48C193.47,320.46,193.22,320.3,192.89,319.94z"/>
	<path class="st13" d="M184.19,315.56c0.21-0.18,0.45-0.05,0.75,0.34C184.73,316.1,184.47,316,184.19,315.56z"/>
	<path class="st46" d="M230.86,232.26c6.8,0.03,13.44,0.33,20.49,0.64c-1.7,7.53-3.81,15.06-6.52,22.83
		c-7.04,0.22-13.49,0.2-19.93,0.19c0.28-3.29,0.55-6.58,0.81-10.24C227.36,241.04,229.03,236.78,230.86,232.26z"/>
	<path class="st49" d="M224.87,256.3c6.48-0.37,12.92-0.36,19.78-0.3c0.31,3.57,0.21,7.1-0.26,11.08c-2.85,1.01-5.54,2.48-7.76,1.93
		c-4.11-1.03-7.5-0.4-10.79,2c-0.31-2.44-0.62-4.88-0.78-7.75c0.05-0.66-0.05-0.88-0.15-1.1
		C224.89,260.33,224.86,258.51,224.87,256.3z"/>
	<path class="st12" d="M225.82,271.33c3.32-2.72,6.7-3.35,10.82-2.32c2.22,0.55,4.91-0.92,7.71-1.52c0.95,4.12,1.58,8.29,1.83,12.84
		c-5.9,0.98-11.42,1.57-16.94,2.17c-0.97-2.82-1.94-5.65-3.14-8.68C225.85,272.96,225.82,272.31,225.82,271.33z"/>
	<path class="st46" d="M224.9,262.35c0.11,0.02,0.21,0.24,0.18,0.53C224.95,262.96,224.89,262.56,224.9,262.35z"/>
	<path class="st40" d="M239.83,329.34c-2.93-1.93-5.59-4.01-8.54-6.13c-2.91-3.35-5.52-6.64-8.2-10.23
		c6.17-2.02,12.4-3.74,19.22-5.55c2.34,1.1,4.08,2.28,5.83,3.47c3.4,2.95,6.78,5.91,10.21,8.82c1.18,1,2.48,1.86,3.81,3.07
		c-3.2,0.93-6.7,2.63-9.73,1.99C247.07,323.65,244.02,327.29,239.83,329.34z"/>
	<path class="st19" d="M229.24,282.79c5.52-0.88,11.03-1.47,16.96-2.07c2.02,3.64,3.62,7.29,4.99,11.28
		c-3.53,2.32-7.14,3.67-10.6,1.43c-2.86-1.85-4.12-0.66-5.42,1.64c-0.73-0.79-1.46-1.58-2.35-2.59c-0.75-2.03-1.33-3.84-1.99-6.2
		c-0.29-0.73-0.51-0.92-0.74-1.11C229.81,284.47,229.53,283.77,229.24,282.79z"/>
	<path class="st12" d="M230.17,285.37c0.15-0.02,0.37,0.16,0.67,0.56C230.69,285.96,230.47,285.77,230.17,285.37z"/>
	<path class="st30" d="M235.23,295.36c1.25-2.6,2.51-3.79,5.37-1.94c3.46,2.24,7.07,0.89,10.69-1.13c3.72,4.5,7.12,9.05,10.67,13.85
		c-0.85,1.42-1.69,3.35-2.88,3.62c-3.3,0.74-6.74,0.78-10.54,1.12c-2.15-1.17-3.9-2.36-5.92-3.59
		C239.98,303.38,237.63,299.52,235.23,295.36z"/>
	<path class="st49" d="M366.14,272.42c-0.8,2.27-1.53,4.21-2.85,6.35c-3.03-0.12-5.45-0.43-7.88-0.74c0.67-4.01,1.81-8.01,1.9-12.03
		c0.15-6.96-0.36-13.93-0.65-21.25c3.38-0.38,6.83-0.41,10.62-0.41C369.53,253.73,368.84,262.96,366.14,272.42z"/>
	<path class="st20" d="M355.17,278.21c2.66,0.12,5.09,0.44,7.89,0.75c-1.1,3.29-2.58,6.57-4.07,10.16
		c-2.67,3.24-5.32,6.16-8.57,9.18c-1.98-0.21-3.36-0.5-4.74-0.8C348.76,291.14,351.85,284.77,355.17,278.21z"/>
	<path class="st30" d="M345.47,297.68c1.59,0.12,2.97,0.42,4.7,0.78c-2.3,3.35-4.95,6.65-7.68,10.23c-3.09,2.2-6.08,4.13-9.1,6.01
		c-1.34,0.83-2.75,1.54-4.44,2.31c0.53-1.1,1.32-2.25,2.24-3.29C335.86,308.41,340.57,303.14,345.47,297.68z"/>
	<path class="st16" d="M299.29,361.14c-0.18,0.14-0.42,0-0.71-0.41C298.76,360.59,299,360.73,299.29,361.14z"/>
	<path class="st17" d="M256.72,341.66c-0.33,0.07-0.8-0.09-1.4-0.45C255.65,341.15,256.12,341.29,256.72,341.66z"/>
	<path class="st17" d="M253.36,339.89c-0.19,0.12-0.41-0.04-0.68-0.45C252.87,339.31,253.1,339.46,253.36,339.89z"/>
	<path class="st17" d="M254.26,340.76c-0.14,0.04-0.38-0.12-0.72-0.48C253.73,340.17,253.97,340.33,254.26,340.76z"/>
</g>
</svg>
