<?xml version="1.0" encoding="iso-8859-1"?>
<!-- Generator: Adobe Illustrator 19.0.0, SVG Export Plug-In . SVG Version: 6.00 Build 0)  -->
<svg version="1.1" id="Capa_1" xmlns="http://www.w3.org/2000/svg" xmlns:xlink="http://www.w3.org/1999/xlink" x="0px" y="0px"
	 viewBox="0 0 409.607 409.607" style="enable-background:new 0 0 409.607 409.607;" xml:space="preserve">
<g>
	<g>
		<path d="M204.804,0C91.703,0,0.004,91.668,0.004,204.769c0,39.951,11.602,77.102,31.386,108.6L1.304,386.002
			c-3.599,8.719,0.532,18.683,9.236,22.298c4.367,1.802,9.032,1.685,13.066,0l72.637-30.08
			c31.493,19.763,68.623,31.38,108.559,31.38c113.085,0,204.8-91.715,204.8-204.831C409.604,91.668,317.889,0,204.804,0z
			 M277.206,277.187c-13.302,13.333-34.934,13.333-48.287,0c0,0-96.517-96.548-96.502-96.548c-13.332-13.333-13.332-34.934,0-48.266
			l24.12-24.136l36.198,60.334l-18.099,18.099l48.251,48.266l18.099-18.099l60.38,36.234L277.206,277.187z"/>
	</g>
</g>
<g>
</g>
<g>
</g>
<g>
</g>
<g>
</g>
<g>
</g>
<g>
</g>
<g>
</g>
<g>
</g>
<g>
</g>
<g>
</g>
<g>
</g>
<g>
</g>
<g>
</g>
<g>
</g>
<g>
</g>
</svg>
